<svg width="162" height="44" viewBox="0 0 162 44" fill="none" xmlns="http://www.w3.org/2000/svg">
<g clip-path="url(#clip0_450_2216)">
<path d="M136.235 43.9982C130.647 43.9982 125.059 43.9964 119.471 43.9991C118.332 43.9991 117.213 43.8742 116.149 43.4473C113.076 42.2134 111.173 39.9597 110.617 36.691C109.813 31.963 112.967 27.5771 117.627 26.7134C118.199 26.6076 118.791 26.5748 119.373 26.5729C124.658 26.5629 129.944 26.5666 135.23 26.5666C141.242 26.5666 147.253 26.5647 153.265 26.5684C155.069 26.5693 156.735 27.0554 158.217 28.097C160.383 29.6219 161.634 31.7086 161.944 34.3562C162.453 38.7139 159.476 43.1245 154.628 43.8942C154.073 43.9827 153.502 43.9927 152.939 43.9936C147.371 44.0009 141.803 43.9982 136.235 43.9982ZM131.292 33.3648C131.431 33.5372 131.571 33.7069 131.707 33.881C133.282 35.9094 134.856 37.9378 136.431 39.9661C136.493 40.0464 136.559 40.123 136.616 40.2069C136.749 40.4085 136.922 40.5088 137.173 40.4942C137.475 40.4769 137.778 40.496 138.08 40.486C138.192 40.4823 138.303 40.4404 138.449 40.4085V39.781C138.449 38.6874 138.449 37.5939 138.449 36.5004C138.449 34.5769 138.451 32.6525 138.446 30.7291C138.446 30.5138 138.504 30.2858 138.378 30.0897C137.747 30.0086 137.085 30.0186 136.605 30.1207C136.54 30.3861 136.576 30.668 136.57 30.947C136.564 31.2508 136.568 31.5545 136.568 31.8582V35.3823C136.568 35.6659 136.574 35.9495 136.566 36.2332C136.559 36.5296 136.598 36.8296 136.528 37.1799C136.296 37.0577 136.201 36.878 136.084 36.7275C134.497 34.6836 132.911 32.638 131.324 30.5941C131.177 30.4053 131.022 30.2229 130.872 30.0396C130.576 30.0396 130.314 30.0332 130.053 30.0414C129.799 30.0496 129.534 29.994 129.266 30.1189C129.258 30.2949 129.247 30.4536 129.246 30.6123C129.244 31.2808 129.245 31.9494 129.245 32.617C129.245 35.0065 129.244 37.396 129.247 39.7855C129.247 40.0008 129.209 40.2251 129.296 40.4194C129.892 40.5261 130.7 40.5152 131.154 40.3893C131.168 39.615 131.159 38.8279 131.16 38.0417C131.162 37.272 131.156 36.5022 131.162 35.7334C131.166 34.9518 131.14 34.1693 131.293 33.3648H131.292ZM118.36 30.0578C118.35 30.3013 118.339 30.46 118.339 30.6196C118.338 32.544 118.339 34.4684 118.339 36.3928C118.339 36.494 118.339 36.5953 118.345 36.6965C118.482 39.0596 119.979 40.2397 121.568 40.5799C122.267 40.7295 122.972 40.7532 123.674 40.6383C125.402 40.3565 126.719 39.2429 127.113 37.4863C127.201 37.095 127.232 36.6828 127.235 36.2806C127.248 34.3763 127.241 32.4729 127.239 30.5686C127.239 30.4108 127.213 30.2539 127.2 30.1052C126.589 30.0004 125.793 30.015 125.356 30.1399C125.35 30.3488 125.339 30.5686 125.339 30.7884C125.337 32.5504 125.343 34.3124 125.333 36.0754C125.331 36.4165 125.306 36.7667 125.227 37.0978C124.989 38.1038 124.342 38.7112 123.333 38.91C123.079 38.9601 122.81 38.9592 122.55 38.9456C121.487 38.8899 120.69 38.2469 120.372 37.2236C120.262 36.8689 120.247 36.5077 120.247 36.1429C120.247 34.3197 120.248 32.4966 120.244 30.6743C120.244 30.4783 120.298 30.2685 120.131 30.0496C119.578 30.0341 118.999 30.0286 118.359 30.0578H118.36ZM152.418 30.0606C152.14 30.7491 151.882 31.3857 151.626 32.0223C151.362 32.6781 151.097 33.3347 150.833 33.9905C150.576 34.628 150.323 35.2664 150.06 35.9012C149.794 36.5451 149.573 37.21 149.232 37.8776C149.048 37.6888 149.003 37.4918 148.93 37.3112C148.046 35.1187 147.162 32.9252 146.277 30.7336C146.187 30.512 146.086 30.2949 145.98 30.0542C145.743 30.0478 145.524 30.0387 145.304 30.0359C145.102 30.0332 144.901 30.0259 144.699 30.0378C144.49 30.0505 144.266 29.983 144.043 30.1253C144.082 30.242 144.107 30.3378 144.145 30.4281C145.499 33.6731 146.854 36.9172 148.212 40.1604C148.257 40.2689 148.328 40.3665 148.387 40.4696H150.052C150.134 40.3008 150.219 40.144 150.288 39.9798C150.595 39.2538 150.897 38.526 151.201 37.7991C152.206 35.3941 153.212 32.9891 154.214 30.5831C154.28 30.4272 154.405 30.2758 154.322 30.046C153.881 30.0432 153.44 30.0368 152.999 30.0378C152.82 30.0378 152.641 30.0533 152.419 30.0633L152.418 30.0606ZM140.679 30.066V30.8713C140.679 33.1168 140.679 35.3622 140.679 37.6076C140.679 38.3965 140.676 39.1854 140.681 39.9743C140.682 40.1285 140.715 40.2826 140.735 40.4568C141.35 40.506 141.925 40.5161 142.482 40.4541C142.618 40.237 142.569 40.03 142.57 39.833C142.574 38.5589 142.572 37.2838 142.572 36.0097C142.572 34.2495 142.574 32.4902 142.57 30.73C142.57 30.5157 142.622 30.2876 142.491 30.0678C141.908 30.0222 141.333 30.0286 140.679 30.066Z" fill="currentcolor"/>
<path d="M0.721994 40.8462C1.40313 40.4896 2.10333 40.2488 2.81353 39.9442C2.92433 40.0609 3.03603 40.1703 3.13866 40.288C4.0759 41.3587 5.25835 41.7928 6.65876 41.6442C8.11366 41.4901 9.18894 40.4202 9.35877 38.9637C9.39782 38.6254 9.40691 38.2834 9.34787 37.8857C9.17986 37.9824 9.04273 38.0508 8.91649 38.1347C8.28712 38.5542 7.6069 38.8461 6.86401 38.992C3.62363 39.6259 0.820986 37.5428 0.162556 34.7273C-0.598498 31.4741 1.37134 28.1844 4.76339 27.5807C8.58046 26.9021 11.3531 29.6939 11.6819 32.595C11.7182 32.9161 11.7464 33.2407 11.7473 33.5636C11.7536 35.1834 11.7518 36.804 11.75 38.4247C11.75 39.1598 11.6374 39.8794 11.3731 40.5662C10.7138 42.2817 9.47502 43.3542 7.7077 43.7893C6.63605 44.0538 5.54261 44.0638 4.46823 43.8021C2.90526 43.4208 1.70464 42.5179 0.854588 41.1471C0.80373 41.0651 0.774669 40.9684 0.721994 40.8471V40.8462ZM9.38239 33.352C9.40872 31.4988 7.87299 29.8398 5.87954 29.8352C3.92151 29.8316 2.33129 31.4276 2.34491 33.3894C2.36035 35.4506 4.07408 36.9317 5.91678 36.9062C7.78944 36.8807 9.42235 35.3065 9.38239 33.3511V33.352Z" fill="currentcolor"/>
<path d="M49.8963 43.6789C49.0998 43.6908 48.3805 43.7008 47.6276 43.6735C47.6049 43.5239 47.5731 43.4099 47.5731 43.2959C47.5704 41.2511 47.5631 39.2054 47.5731 37.1607C47.584 34.7693 49.3341 32.9562 51.3457 32.5804C52.8206 32.305 54.1456 32.6461 55.3045 33.6092C55.4588 33.7378 55.6042 33.8773 55.7822 34.0379C55.9356 33.9038 56.0828 33.7752 56.229 33.6475C58.7428 31.4513 62.668 32.5047 63.7623 35.6667C63.9231 36.1319 64.0066 36.608 64.0084 37.0959C64.0139 39.1817 64.0121 41.2675 64.0103 43.3524C64.0103 43.4318 63.9903 43.512 63.9776 43.6105C63.6098 43.7619 63.2256 43.6689 62.8514 43.6853C62.4909 43.7008 62.1294 43.689 61.8034 43.689C61.6199 43.4993 61.6726 43.3077 61.6726 43.1326C61.6681 41.3305 61.6699 39.5283 61.6699 37.7261C61.6699 37.5437 61.6672 37.3613 61.6681 37.1798C61.6744 36.1155 60.8589 34.8833 59.3558 34.8459C58.1407 34.8149 57.0627 35.726 56.9664 37.105C56.9537 37.2865 56.961 37.4689 56.961 37.6513C56.961 39.4334 56.961 41.2155 56.961 42.9967V43.6096C56.5532 43.7473 56.1699 43.6753 55.7949 43.6862C55.4352 43.6963 55.0756 43.6817 54.7105 43.678C54.5852 43.44 54.6297 43.2147 54.6288 42.9995C54.6251 41.1572 54.6297 39.314 54.6224 37.4717C54.6215 37.1907 54.5988 36.9025 54.5352 36.6308C54.2691 35.4898 53.2057 34.7711 52.1113 34.8459C50.9243 34.9271 49.9961 35.8765 49.9244 37.0558C49.9135 37.2373 49.9181 37.4197 49.9181 37.6021C49.9181 39.3842 49.9181 41.1663 49.9171 42.9475C49.9171 43.1664 49.9053 43.3853 49.8972 43.6789H49.8963Z" fill="currentcolor"/>
<path d="M84.1772 43.646C83.3817 43.719 82.3972 43.7044 81.9122 43.6168C81.8414 43.4144 81.8705 43.1909 81.8705 42.9739C81.8677 40.7257 81.8723 38.4776 81.865 36.2285C81.8641 35.9275 81.8459 35.6174 81.7742 35.3274C81.5235 34.3141 80.6272 33.6575 79.58 33.6885C78.5438 33.7195 77.6901 34.4455 77.504 35.4752C77.454 35.7515 77.444 36.0388 77.4431 36.3206C77.4386 38.5286 77.4413 40.7367 77.4395 42.9438C77.4395 43.1636 77.4304 43.3834 77.4258 43.5922C76.9845 43.7108 75.8247 43.7263 75.1472 43.6269C75.1336 43.5229 75.1109 43.4089 75.1045 43.2931C75.0964 43.1517 75.1018 43.0094 75.1018 42.8681C75.1018 37.7032 75.1018 32.5375 75.1018 27.3727C75.1018 27.1337 75.1109 26.8939 75.1154 26.6677C75.5868 26.55 76.8137 26.54 77.3904 26.6458C77.4921 27.1948 77.4249 27.7594 77.4377 28.3194C77.4495 28.8866 77.4404 29.4539 77.4404 30.0203C77.4404 30.5867 77.4404 31.1521 77.4404 31.7659C77.593 31.7413 77.7047 31.7331 77.8091 31.7039C78.1769 31.6008 78.5365 31.4604 78.9098 31.3883C81.4509 30.8986 84.1291 32.8667 84.1927 35.7269C84.2254 37.2044 84.2009 38.6837 84.2018 40.163C84.2018 41.1151 84.2036 42.0673 84.2009 43.0186C84.2009 43.2165 84.1854 43.4144 84.1754 43.6442L84.1772 43.646Z" fill="currentcolor"/>
<path d="M32.2476 43.9707C28.9936 43.9816 26.3808 41.2364 26.4135 38.0133C26.4434 35.0893 28.7702 32.1718 32.3293 32.1927C35.7423 32.2137 38.2062 35 38.1616 38.1556C38.1135 41.5483 35.3227 44.0318 32.2476 43.9707ZM32.2885 34.5613C30.6338 34.5148 28.7902 35.8381 28.7684 38.0589C28.7466 40.2195 30.5102 41.6341 32.2866 41.6259C34.2256 41.6177 35.7859 40.0718 35.8049 38.1209C35.8249 36.0014 34.0667 34.5193 32.2885 34.5613Z" fill="currentcolor"/>
<path d="M91.4 43.9717C88.2441 44.0119 85.5123 41.4016 85.5214 38.059C85.5304 34.9892 87.9571 32.1929 91.3918 32.1929C94.931 32.1929 97.2895 35.1132 97.2714 38.111C97.2523 41.3259 94.6213 44.0018 91.4 43.9717ZM91.4172 41.6242C93.0847 41.6406 94.9074 40.33 94.9156 38.1001C94.9237 35.8492 93.0511 34.5423 91.3764 34.5514C89.7199 34.5605 87.8999 35.8702 87.8744 38.0809C87.8527 40.0409 89.4556 41.6333 91.4172 41.6242Z" fill="currentcolor"/>
<path d="M19.0954 43.9709C15.8377 44.0174 13.2285 41.3087 13.1958 38.1412C13.165 35.1515 15.5035 32.213 19.0436 32.192C22.3648 32.1719 24.9504 34.8305 24.9413 38.0892C24.9313 41.5941 22.0696 44.0055 19.0954 43.9709ZM19.0409 34.5624C17.2726 34.535 15.5544 36.0025 15.5453 38.0883C15.5362 40.051 17.1337 41.6333 19.0963 41.6251C21.0579 41.6169 22.5882 39.9771 22.59 38.0938C22.5909 36.1347 20.9571 34.5131 19.0409 34.5624Z" fill="currentcolor"/>
<path d="M92.3663 14.3071C92.8821 14.0919 93.3816 13.884 93.9102 13.6642C94.0382 13.7973 94.159 13.9277 94.2835 14.0527C95.0372 14.8124 95.9436 15.097 96.9916 14.9045C97.9834 14.723 98.6818 13.9815 98.8243 12.9792C98.8416 12.8597 98.8461 12.7366 98.8461 12.6162C98.8461 12.4767 98.8334 12.3372 98.8234 12.1456C98.6691 12.2241 98.5437 12.2761 98.432 12.3472C97.9316 12.6655 97.3931 12.8689 96.8073 12.9756C94.0155 13.4808 91.3164 10.9983 91.885 7.8983C92.2237 6.05053 93.7749 4.42712 95.9799 4.31494C98.0842 4.20732 99.9405 5.59451 100.455 7.58092C100.554 7.96853 100.605 8.37894 100.612 8.77933C100.631 10.0142 100.617 11.2491 100.618 12.4849C100.618 13.0157 100.546 13.5374 100.366 14.0354C99.8642 15.4253 98.8716 16.2616 97.443 16.5763C96.7464 16.7295 96.0435 16.7404 95.3406 16.5936C94.0882 16.3318 93.1319 15.646 92.4507 14.5662C92.4108 14.5023 92.4008 14.4193 92.3654 14.3081L92.3663 14.3071ZM96.2106 11.3731C97.6864 11.3713 98.8516 10.1921 98.8434 8.7091C98.8352 7.23343 97.6437 6.05965 96.1734 6.0788C94.7266 6.09796 93.5742 7.26353 93.5642 8.71639C93.5542 10.1848 94.7394 11.375 96.2106 11.3731Z" fill="currentcolor"/>
<path d="M100.906 43.6552C100.111 43.7163 99.3929 43.6807 98.6445 43.6853C98.6173 43.5439 98.5755 43.4317 98.5755 43.3187C98.5728 41.2137 98.5428 39.1078 98.5837 37.0038C98.6309 34.5394 100.697 32.5457 103.156 32.4865C105.347 32.4336 107.367 33.9302 107.863 36.2468C107.926 36.5414 107.951 36.8487 107.952 37.1506C107.96 39.1744 107.957 41.1991 107.955 43.2229C107.955 43.3588 107.928 43.4938 107.914 43.6187C107.419 43.7035 106.4 43.7172 105.712 43.6525C105.557 43.4856 105.619 43.273 105.618 43.0797C105.614 41.2784 105.616 39.4763 105.616 37.675C105.616 37.4926 105.618 37.3102 105.613 37.1287C105.584 36.0334 104.741 34.8878 103.313 34.845C102.15 34.8103 101.054 35.6549 100.918 37.032C100.9 37.2126 100.908 37.3959 100.908 37.5783C100.908 39.3595 100.908 41.1407 100.908 42.9219V43.6561L100.906 43.6552Z" fill="currentcolor"/>
<path d="M68.2324 33.965H65.5759C65.4442 33.5291 65.4224 32.3972 65.5269 31.6694C65.6459 31.6484 65.7775 31.6083 65.9092 31.6065C66.4941 31.5992 67.079 31.6056 67.6629 31.601C67.8391 31.6001 68.0162 31.58 68.1679 31.57C68.2959 31.3356 68.256 31.1295 68.256 30.9307C68.2596 29.6958 68.256 28.4618 68.2596 27.2269C68.2596 27.0281 68.2278 26.8229 68.3223 26.6414C68.8426 26.5502 70.0569 26.5529 70.5827 26.6514C70.5936 26.8165 70.6154 26.9925 70.6163 27.1695C70.619 28.4244 70.6163 29.6794 70.62 30.9334C70.62 31.1322 70.5827 31.3365 70.6808 31.5463C71.1086 31.6621 71.5527 31.5855 71.9913 31.6001C72.4327 31.6156 72.875 31.6111 73.3209 31.6156C73.4735 32.0196 73.3872 32.4063 73.4026 32.783C73.4171 33.1442 73.4062 33.5063 73.4062 33.8948C73.2546 33.9221 73.142 33.9586 73.0284 33.9595C72.4036 33.9659 71.7788 33.9614 71.1531 33.965C70.9968 33.965 70.8415 33.9832 70.6545 33.9942C70.5782 34.8323 70.629 35.6377 70.62 36.4412C70.6109 37.2301 70.6181 38.0199 70.6181 38.8088C70.6181 39.5977 70.619 40.4277 70.6181 41.2375C70.6163 42.0237 70.6254 42.8099 70.6109 43.628C70.2058 43.7338 69.8253 43.6772 69.4502 43.6863C69.0888 43.6955 68.7273 43.6882 68.3813 43.6882C68.2042 43.4611 68.2632 43.2312 68.2623 43.0178C68.2569 41.2777 68.2596 39.5366 68.2596 37.7964C68.2596 36.744 68.2605 35.6915 68.2587 34.639C68.2587 34.4402 68.2442 34.2413 68.2342 33.965H68.2324Z" fill="currentcolor"/>
<path d="M134.518 12.9353H132.915C132.724 12.752 132.776 12.5596 132.775 12.3854C132.77 11.0903 132.773 9.79428 132.771 8.4992C132.771 8.29673 132.776 8.09334 132.758 7.8927C132.681 7.02809 132.006 6.35592 131.13 6.29664C130.338 6.24374 129.563 6.74354 129.341 7.54977C129.273 7.79876 129.249 8.06781 129.247 8.32773C129.238 9.64288 129.245 10.9589 129.242 12.275C129.242 12.472 129.225 12.6699 129.215 12.8988C128.644 12.9618 128.111 12.9408 127.546 12.918C127.526 12.7648 127.5 12.6489 127.5 12.534C127.497 11.0164 127.503 9.49787 127.498 7.98025C127.495 6.56296 128.491 5.01068 130.228 4.62307C131.334 4.37682 132.349 4.61486 133.24 5.3308C133.365 5.43113 133.483 5.54057 133.622 5.66005C133.847 5.60168 133.971 5.40103 134.139 5.27061C135.916 3.89618 138.514 4.51362 139.482 6.54198C139.731 7.06457 139.831 7.62273 139.838 8.19093C139.854 9.66842 139.843 11.1459 139.841 12.6234C139.841 12.7009 139.818 12.7784 139.802 12.8779C139.522 12.9827 139.238 12.9235 138.963 12.9344C138.703 12.9444 138.441 12.9362 138.212 12.9362C138.014 12.7639 138.072 12.5696 138.071 12.3954C138.066 11.0793 138.069 9.76418 138.069 8.44812C138.069 8.28578 138.074 8.12344 138.064 7.96292C138.006 7.02535 137.237 6.29026 136.314 6.28752C135.393 6.28479 134.618 7.01715 134.553 7.95289C134.542 8.11432 134.548 8.27666 134.548 8.43809C134.548 9.71311 134.548 10.9881 134.547 12.2631C134.547 12.4611 134.531 12.659 134.519 12.9353H134.518Z" fill="currentcolor"/>
<path d="M101.727 8.71263C101.701 6.33588 103.683 4.28745 106.167 4.30752C108.376 4.32485 110.524 6.08871 110.521 8.74272C110.518 11.1806 108.601 13.1442 106.136 13.1451C103.396 13.1469 101.673 10.8732 101.726 8.71263H101.727ZM108.763 8.73634C108.767 7.26159 107.586 6.07412 106.115 6.07868C104.727 6.08324 103.501 7.14029 103.482 8.68891C103.462 10.4364 104.903 11.3858 106.099 11.3776C107.576 11.3666 108.76 10.2111 108.763 8.73634Z" fill="currentcolor"/>
<path d="M111.641 8.74284C111.596 6.34328 113.586 4.30125 116.048 4.30763C118.44 4.31402 120.421 6.28856 120.433 8.71274C120.444 10.9509 118.686 13.1562 116.016 13.1443C113.296 13.1315 111.595 10.8743 111.64 8.74284H111.641ZM116.027 11.3731C117.502 11.374 118.684 10.1921 118.68 8.71912C118.676 7.25258 117.473 6.06329 116.009 6.0788C114.565 6.0943 113.384 7.2617 113.389 8.70727C113.394 10.3799 114.765 11.4087 116.027 11.374V11.3731Z" fill="currentcolor"/>
<path d="M65.1182 8.38152C65.101 9.19323 65.0528 9.89549 64.824 10.5759C64.3199 12.0771 63.1775 12.9727 61.6045 13.0858C61.0396 13.1268 60.4792 13.1095 59.9271 12.9599C58.959 12.6982 58.2479 12.1172 57.7656 11.2426C57.4786 10.7227 57.3242 10.1591 57.248 9.57446C57.1135 8.54113 57.139 7.51327 57.4496 6.51368C57.8337 5.27788 58.6057 4.39777 59.869 4.01746C60.7399 3.7557 61.6163 3.76756 62.4872 4.03296C63.3573 4.29745 64.0066 4.84102 64.4652 5.62172C64.7877 6.16985 64.9593 6.77088 65.0419 7.39562C65.0892 7.75587 65.0992 8.12068 65.1182 8.38152ZM58.692 8.45448C58.7201 9.15128 58.7755 9.83347 59.038 10.481C59.4167 11.4186 60.1378 11.9001 61.1459 11.8974C61.2857 11.8974 61.4274 11.8819 61.5663 11.8646C62.2057 11.7852 62.7043 11.4706 63.0367 10.9206C63.1811 10.6826 63.2964 10.4172 63.3754 10.1499C63.6188 9.32547 63.6452 8.48184 63.5353 7.63092C63.4753 7.16761 63.38 6.71615 63.172 6.2948C62.9413 5.82875 62.6144 5.45938 62.1312 5.24323C60.9115 4.69965 59.5974 5.21222 59.0725 6.44437C58.9935 6.6286 58.919 6.82195 58.8863 7.01804C58.8073 7.49412 58.7555 7.97476 58.692 8.45357V8.45448Z" fill="currentcolor"/>
<path d="M46.3843 32.503C46.3934 33.312 46.4143 34.0325 46.3707 34.7703C46.1128 34.8679 45.8703 34.8178 45.6351 34.8351C45.2745 34.8615 44.9067 34.8561 44.5561 34.9308C43.2674 35.2072 42.3356 36.3272 42.2902 37.6514C42.2657 38.3583 42.2821 39.0669 42.2812 39.7746C42.2812 40.8463 42.2812 41.9188 42.2812 42.9905C42.2812 43.1902 42.2812 43.389 42.2812 43.6179C41.8743 43.7365 41.4929 43.6745 41.1187 43.6845C40.7572 43.6945 40.3958 43.6863 40.0461 43.6863C39.8654 43.4656 39.9244 43.2349 39.9235 43.0224C39.9181 41.3634 39.9181 39.7053 39.9235 38.0463C39.9244 37.7435 39.9435 37.4398 39.9762 37.1389C40.2523 34.5934 42.4419 32.565 44.993 32.4948C45.4325 32.483 45.873 32.4975 46.3852 32.5003L46.3843 32.503Z" fill="currentcolor"/>
<path d="M53.667 7.70947C53.6906 7.17684 53.7151 6.69894 53.5626 6.22742C53.3628 5.61089 52.9559 5.24516 52.3129 5.14119C51.8052 5.05911 51.3048 5.11018 50.8135 5.22875C50.3839 5.33181 49.9643 5.47682 49.5039 5.61362C49.246 5.36646 49.2233 4.98797 49.0316 4.66238C49.1624 4.57208 49.2496 4.49183 49.3531 4.44349C50.4965 3.9136 51.6826 3.67191 52.9386 3.93093C54.0421 4.15802 54.7087 4.84661 54.9775 5.92463C55.0601 6.25569 55.1128 6.60318 55.1146 6.94428C55.1273 8.84677 55.121 10.7493 55.1201 12.6509C55.1201 12.7101 55.1019 12.7685 55.0874 12.8551C54.7677 13.002 54.429 12.9062 54.1165 12.9172C53.8604 12.6755 53.9921 12.3134 53.7869 12.0361C53.6388 12.1264 53.5044 12.203 53.3746 12.287C52.8433 12.628 52.2738 12.8798 51.6536 13.0029C51.1541 13.1023 50.6537 13.1041 50.156 12.9737C49.2705 12.7421 48.7274 12.1711 48.5185 11.2883C48.4005 10.7912 48.4041 10.2805 48.5158 9.7816C48.6974 8.97172 49.2006 8.42359 49.9507 8.09708C50.5528 7.83533 51.1922 7.75507 51.8397 7.73865C52.3029 7.7268 52.767 7.73683 53.2311 7.73409C53.3509 7.73409 53.4699 7.72041 53.667 7.70856V7.70947ZM53.6352 8.81211C53.5426 8.79387 53.4663 8.76651 53.3909 8.76742C52.8088 8.77016 52.2266 8.77381 51.6445 8.78931C51.4656 8.79387 51.283 8.82032 51.1087 8.86319C50.265 9.07204 49.8926 9.54721 49.8799 10.4146C49.879 10.4948 49.8817 10.576 49.8881 10.6562C49.948 11.4223 50.3594 11.8318 51.1286 11.8492C52.0059 11.8683 52.7752 11.5509 53.4726 11.0329C53.6361 10.9116 53.6897 10.7611 53.687 10.565C53.6797 10.0607 53.6852 9.55724 53.6806 9.05289C53.6806 8.97719 53.6525 8.90149 53.6352 8.81211Z" fill="currentcolor"/>
<path d="M37.2853 12.9034H36.2409C36.2009 12.7556 36.161 12.6042 36.1192 12.4519C36.0838 12.3215 36.0474 12.1911 36.0002 12.0169C35.7904 12.1446 35.6233 12.2476 35.4562 12.3498C34.6815 12.8204 33.8587 13.1113 32.9369 13.0657C31.601 13 30.7273 12.1354 30.6438 10.8002C30.5266 8.94789 31.5656 8.11703 32.9614 7.85345C33.3946 7.77137 33.8424 7.75678 34.2838 7.74036C34.7851 7.72212 35.2873 7.7358 35.7768 7.7358C35.9757 7.09464 35.874 6.27108 35.5534 5.78406C35.3173 5.42563 34.9794 5.22772 34.5635 5.1502C34.0376 5.05261 33.5163 5.10642 33.005 5.22863C32.5755 5.33169 32.1559 5.4767 31.6973 5.61351C31.463 5.3554 31.3885 5.00153 31.2486 4.64675C31.3567 4.57197 31.4448 4.4908 31.5474 4.44246C32.6708 3.92169 33.836 3.68183 35.0739 3.91987C36.2345 4.14331 36.9184 4.85834 37.1818 5.98926C37.2635 6.34131 37.3089 6.70977 37.3116 7.07093C37.3243 8.89226 37.318 10.7136 37.3171 12.5349C37.3171 12.6334 37.3016 12.7328 37.288 12.9034H37.2853ZM35.8821 10.8367C35.8821 10.2594 35.8858 9.69484 35.8794 9.1303C35.8776 9.01812 35.8358 8.90594 35.814 8.80379C35.2274 8.73903 34.0158 8.73356 33.5554 8.81473C33.3202 8.85577 33.085 8.92418 32.8652 9.0172C32.4474 9.19505 32.1913 9.52521 32.1187 9.97484C32.0805 10.2111 32.0614 10.4582 32.0841 10.6963C32.155 11.4405 32.5628 11.8363 33.3029 11.8454C34.2874 11.8573 35.1438 11.5098 35.8831 10.8358L35.8821 10.8367Z" fill="currentcolor"/>
<path d="M73.9412 4.50993C74.2127 4.23724 74.4371 4.01197 74.675 3.77393C75.1836 4.17522 75.5759 4.63853 76.0073 5.05898C76.4559 5.49675 76.8928 5.94547 77.335 6.38872C77.7619 6.81646 78.1887 7.2442 78.641 7.69657C78.9534 7.45397 79.1868 7.17945 79.442 6.92955C79.7018 6.6751 79.9561 6.41517 80.2131 6.15706C80.4837 5.88528 80.7553 5.61349 81.0259 5.34079C81.2829 5.08269 81.539 4.8255 81.796 4.5683C82.0512 4.31294 82.3064 4.05848 82.5816 3.78396C82.8849 3.97822 83.0847 4.2272 83.3299 4.48805C83.2273 4.61208 83.1383 4.73885 83.0302 4.84739C81.9768 5.90899 80.9205 6.96694 79.8661 8.02764C79.7263 8.16809 79.5946 8.31766 79.432 8.49368C80.1114 9.17588 80.7662 9.83163 81.4191 10.4892C82.0567 11.1313 82.7024 11.7651 83.3445 12.4327C83.1238 12.7237 82.894 12.9417 82.6642 13.1359C82.6188 13.1359 82.5979 13.1396 82.5789 13.135C82.5598 13.1304 82.5416 13.1204 82.5262 13.1086C82.4799 13.0703 82.4317 13.0319 82.3891 12.99C81.1739 11.7761 79.9597 10.5622 78.7436 9.34917C78.73 9.33549 78.7082 9.33093 78.6501 9.30357C78.5457 9.39112 78.4194 9.48233 78.3104 9.59086C77.2533 10.6479 76.1989 11.7086 75.1427 12.7665C75.0019 12.9079 74.853 13.0411 74.7059 13.1806C74.4153 12.9718 74.2173 12.7219 73.9657 12.4774C74.2009 12.15 74.4825 11.9202 74.7304 11.6621C74.9829 11.4003 75.2426 11.1459 75.4996 10.8878C75.7703 10.616 76.0418 10.3442 76.3124 10.0715C76.5695 9.81339 76.8256 9.5562 77.0826 9.29809C77.3387 9.0409 77.5939 8.78371 77.8609 8.51648C77.5884 8.10333 77.2179 7.81878 76.9009 7.48498C76.5813 7.14844 76.2471 6.82467 75.9183 6.49542C75.605 6.18077 75.2907 5.86521 74.9774 5.55056C74.6505 5.22223 74.3244 4.8939 73.9403 4.50902L73.9412 4.50993Z" fill="currentcolor"/>
<path d="M39.9862 0.299146C40.4939 0.191526 40.9425 0.0957632 41.3948 0C41.4275 0.0957632 41.4638 0.151397 41.4638 0.207031C41.4656 4.37136 41.4647 8.5366 41.462 12.7009C41.462 12.7557 41.4257 12.8104 41.393 12.9034C40.9616 12.949 40.5257 12.9216 40.0598 12.918C40.0325 12.7839 39.9944 12.6718 39.9907 12.5587C39.9807 12.296 39.9871 12.0333 39.9871 11.7707C39.9871 8.19186 39.9871 4.61396 39.9871 1.03515C39.9871 0.814443 39.9871 0.593732 39.9871 0.298234L39.9862 0.299146Z" fill="currentcolor"/>
<path d="M23.6417 12.9016C23.1241 12.9353 22.6881 12.9454 22.225 12.9016C22.2086 12.7484 22.1886 12.6334 22.185 12.5167C22.116 9.85814 22.1541 0.894702 22.2422 0.289114C22.6754 0.195175 23.1241 0.0984993 23.5754 0C23.7262 0.234392 23.6635 0.4624 23.6644 0.674903C23.6699 3.40461 23.6681 6.13341 23.6681 8.86311C23.6681 9.99494 23.669 11.1277 23.6671 12.2595C23.6671 12.4574 23.6526 12.6553 23.6426 12.9025L23.6417 12.9016Z" fill="currentcolor"/>
<path d="M123.505 12.9107H121.832C121.804 12.7903 121.757 12.6782 121.756 12.566C121.75 11.2098 121.73 9.85268 121.759 8.49649C121.799 6.55934 123.055 5.03078 124.898 4.6158C125.318 4.52095 125.958 4.51001 126.557 4.593C126.631 5.11924 126.599 5.65552 126.572 6.22827C126.424 6.24742 126.292 6.27205 126.158 6.28208C125.897 6.30215 125.631 6.28847 125.375 6.33315C124.284 6.52559 123.549 7.37469 123.531 8.48919C123.512 9.72408 123.527 10.959 123.524 12.1948C123.524 12.4137 123.512 12.6326 123.503 12.9116L123.505 12.9107Z" fill="currentcolor"/>
<path d="M28.1899 13.1013C27.8175 12.7611 24.6807 8.93511 24.2502 8.30216C24.4236 7.98204 24.6861 7.70205 24.9095 7.39652C25.1357 7.08643 25.3736 6.78363 25.6061 6.4781C25.8268 6.18899 26.0475 5.89987 26.2682 5.60985C26.5006 5.30432 26.7259 4.9924 26.9675 4.69417C27.2063 4.39867 27.3916 4.05666 27.7158 3.79126C28.0836 4.05848 28.4387 4.31659 28.8129 4.58929C28.535 5.05442 28.188 5.42015 27.8829 5.81688C27.575 6.21726 27.2544 6.60852 26.9402 7.00434C26.6269 7.39834 26.3145 7.79325 25.9866 8.2064C26.0856 8.34412 26.1583 8.45994 26.2455 8.56483C27.1091 9.60819 27.9755 10.6497 28.8392 11.6931C28.9791 11.8618 29.1089 12.0388 29.2606 12.2348C28.9346 12.5778 28.5622 12.814 28.1899 13.1022V13.1013Z" fill="currentcolor"/>
<path d="M47.07 12.232C46.7358 12.5823 46.3652 12.8203 45.9947 13.1012C45.9121 13.0319 45.8258 12.9808 45.7658 12.9088C44.5643 11.4377 43.3655 9.96473 42.1667 8.49088C42.1295 8.44528 42.1068 8.38783 42.0786 8.3404C42.2975 7.92634 44.9748 4.37216 45.487 3.82129C45.7132 3.87601 45.8785 4.06207 46.0737 4.19066C46.2572 4.31105 46.4279 4.45059 46.635 4.60472C46.16 5.25318 45.6641 5.83596 45.1964 6.44155C44.7414 7.03072 44.2474 7.59162 43.8133 8.22548C43.9014 8.35134 43.974 8.46991 44.0612 8.57479C44.924 9.61815 45.7904 10.6588 46.6541 11.7012C46.7939 11.87 46.9238 12.046 47.07 12.2329V12.232Z" fill="currentcolor"/>
</g>
<defs>
<clipPath id="clip0_450_2216">
<rect width="162" height="44" fill="white"/>
</clipPath>
</defs>
</svg>
