<?xml version="1.0" encoding="UTF-8"?>
<svg id="_레이어_1" data-name="레이어 1" xmlns="http://www.w3.org/2000/svg" version="1.1" viewBox="0 0 3436.52 5196.26">
  <defs>
    <style>
      .cls-1 {
        font-size: 36px;
      }

      .cls-1, .cls-2 {
        font-family: AppleSDGothicNeo-SemiBold-KSCpc-EUC-H, 'Apple SD Gothic Neo';
        font-weight: 600;
      }

      .cls-1, .cls-3 {
        fill: #fff;
      }

      .cls-4 {
        fill: #49584f;
        opacity: .51;
      }

      .cls-4, .cls-5, .cls-6, .cls-7, .cls-8, .cls-9, .cls-3 {
        stroke-width: 0px;
      }

      .cls-10, .cls-11, .cls-12 {
        stroke: #2d3d33;
      }

      .cls-10, .cls-11, .cls-12, .cls-13, .cls-14 {
        stroke-miterlimit: 10;
        stroke-width: 3px;
      }

      .cls-10, .cls-5 {
        fill: #56655c;
      }

      .cls-11, .cls-8, .cls-14 {
        fill: #546259;
      }

      .cls-6 {
        fill: #2e4035;
      }

      .cls-12, .cls-13 {
        fill: none;
      }

      .cls-7 {
        fill: #16231a;
      }

      .cls-13, .cls-14 {
        stroke: #fff;
      }

      .cls-2 {
        fill: #000;
        font-size: 30px;
      }

      .cls-9 {
        fill: #c5cac6;
      }
    </style>
  </defs>
  <rect class="cls-6" x="0" y="0" width="3436.52" height="5196.26"/>
  <path class="cls-7" d="M247.45,0c134.04,281.83,361.53,713.11,495.57,994.93,43.61-12,87.21-23.99,130.82-35.99C740.59,689.11,513.89,269.83,380.64,0h-133.19Z"/>
  <path class="cls-7" d="M873.84,958.94c223.72-214.24,451.61-430.71,675.34-644.95,559.35,35.56,1327.99,96.27,1887.34,131.83v83.89c-544.37-33.05-1298.03-91.25-1842.4-124.29-221.17,208.43-448.81,422.77-669.98,631.2-7.85-4.54-21.76-13.97-33.27-30.9-12.91-19-16.08-37.58-17.03-46.77Z"/>
  <path class="cls-7" d="M897.75,1112.39h1491.88c-29.25-234.02-58.51-468.04-87.76-702.06,29.25,1.22,58.51,2.44,87.76,3.66,54.85,444.88,113.2,912.3,168.04,1357.18,111.59-1.93,223.18-3.85,334.77-5.78,111.59-1.93,432.48-23.16,544.07-25.08v65.82c-246.31,11.41-701.92,42.13-948.23,53.54-26.54-219.93-53.09-439.86-79.63-659.79-508.11,3.79-1016.23,7.58-1524.34,11.38,4.48-32.95,8.95-65.9,13.43-98.85Z"/>
  <path class="cls-7" d="M743.02,994.93c43.61-12,87.21-23.99,130.82-35.99,16.76,25.89,33.53,51.78,50.29,77.68-54.46,561.39-108.92,1122.78-163.38,1684.17h-200.48c60.92-575.29,121.83-1150.57,182.75-1725.86Z"/>
  <path class="cls-14" d="M234.63,498.91c46.64-21.36,93.27-42.71,139.91-64.07,23.97,47.51,47.94,95.01,71.91,142.52,6.1-2.62,12.2-5.23,18.31-7.85,49.69,98.94,99.37,197.87,149.06,296.81l-17,10.46c14.38,24.84,28.77,49.69,43.15,74.53,2.82,188.68,5.64,377.36,8.47,566.04-31.97,1.42-63.95,2.84-95.92,4.26-1.42-11.72-2.84-23.45-4.26-35.17-10.3-.36-20.61-.71-30.91-1.07-.36-21.67-.71-43.34-1.07-65.01h-21.34c-3.19-147.08-6.38-294.16-9.57-441.24-28.07-47.96-56.13-95.92-84.2-143.88,5.33-2.84,10.66-5.68,15.99-8.53-27.36-50.45-54.71-100.9-82.07-151.34-4.97,3.2-9.95,6.39-14.92,9.59-28.51-62.02-57.02-124.04-85.54-186.05Z"/>
  <path class="cls-14" d="M205.18,1679.91c34.11-118.61,68.22-237.21,102.33-355.82,49.61,15.5,99.23,31.01,148.84,46.51-36.82,127.13-73.65,254.27-110.47,381.4,83.34,103.1,166.67,206.21,250.01,309.31-10.08,9.3-20.16,18.61-30.23,27.91,6.98,9.69,13.95,19.38,20.93,29.07-24.42,20.54-48.84,41.09-73.26,61.63-7.36-8.14-14.73-16.28-22.09-24.42-6.98,4.65-13.95,9.3-20.93,13.95-52.71-66.28-105.43-132.56-158.14-198.84,6.98-5.43,13.95-10.85,20.93-16.28-10.85-15.89-21.71-31.78-32.56-47.68-48.84-13.95-97.68-27.91-146.51-41.86,2.71-6.2,5.43-12.4,8.14-18.6-8.14-1.94-16.28-3.88-24.42-5.81,16.28-54.26,32.56-108.53,48.84-162.79,6.2.78,12.4,1.55,18.61,2.33Z"/>
  <path class="cls-14" d="M907.52,1.63c9.47,9.92,18.95,19.85,28.42,29.77-5.75,93.05-11.5,333.93-17.26,426.98,25.04.34,50.08.68,75.12,1.02,18.27,25.38,36.54,50.76,54.82,76.13,5.75-107.6,11.5-215.2,17.26-322.81,98.13,5.08,196.26,10.15,294.38,15.23,17.6,25.04,35.19,50.08,52.79,75.12,3.38-51.21,6.77-250.24,10.15-301.45h-515.68Z"/>
  <path class="cls-14" d="M2053.39,1.93c-14.25,13.17-28.5,26.35-42.75,39.52-.75,19.87-1.5,187.28-2.25,207.15,115.12,7.12,230.25,14.25,345.37,21.37l-1.12,14.62c192.75,8.25,385.49,16.5,578.24,24.75v-27l156.37,10.12c1.5-23.62,3-47.25,4.5-70.87,25.12,2.62,50.25,5.25,75.37,7.87.38-26.67.75-200.87,1.12-227.55h-1114.85Z"/>
  <path class="cls-14" d="M2643.55,854.82c138.8,6.16,581.26,21.64,720.06,27.8-.82,51.33-1.64,102.67-2.46,154-139.63-4.52-582.9-18.36-722.52-22.88,1.64-52.98,3.29-105.95,4.93-158.93Z"/>
  <path class="cls-13" d="M2883,970.77c44.23,1.96,88.47,3.93,132.7,5.89-.26,16.36-.52,32.72-.79,49.08-44.5-1.44-88.99-2.88-133.49-4.32.52-16.88,1.05-33.77,1.57-50.65Z"/>
  <path class="cls-14" d="M3158.79,1185.03c22.81.57,254.92,1.14,277.73,1.71v238.92c-28.24-.29-265.77-.57-294-.86,5.42-79.93,10.85-159.85,16.27-239.78Z"/>
  <rect class="cls-8" x="2777.82" y="1928.85" width="658.7" height="661.66"/>
  <rect class="cls-13" x="795.13" y="814.2" width="209.05" height="74.38"/>
  <g>
    <rect class="cls-12" x="2777.82" y="2063.39" width="140.02" height="392.58"/>
    <rect class="cls-12" x="2777.82" y="2173.02" width="70.01" height="179.01"/>
    <path class="cls-12" d="M2918.62,2342.41c4.99-4.85,34.58-34.58,33.59-81.62-.95-45.06-29.26-72.87-34.6-77.92"/>
  </g>
  <rect class="cls-14" x="2017.21" y="1579.9" width="227.25" height="144.61" transform="translate(-134.42 189.72) rotate(-4.94)"/>
  <rect class="cls-14" x="2259.99" y="1563.2" width="121.33" height="258.44" transform="translate(-137.18 206.22) rotate(-4.94)"/>
  <rect class="cls-11" x="1000.58" y="1934.78" width="1498.98" height="784.66" rx="392.33" ry="392.33"/>
  <rect class="cls-11" x="1027.01" y="1963.92" width="1448.18" height="724.84" rx="362.42" ry="362.42"/>
  <rect class="cls-11" x="1050.36" y="1989.22" width="1399.4" height="671.74" rx="335.87" ry="335.87"/>
  <rect class="cls-11" x="1080.92" y="2015.15" width="1340.35" height="619.89" rx="305" ry="305"/>
  <rect class="cls-11" x="1184.73" y="2162.1" width="121.79" height="302.93"/>
  <path class="cls-12" d="M1289.18,2162.26c0,24.05-19.5,43.55-43.55,43.55s-43.55-19.5-43.55-43.55"/>
  <path class="cls-12" d="M1202.07,2465.02c0-24.05,19.5-43.55,43.55-43.55s43.55,19.5,43.55,43.55"/>
  <circle class="cls-11" cx="1245.63" cy="2317.35" r="26.19"/>
  <rect class="cls-11" x="1223.59" y="2162.1" width="44.08" height="21.94"/>
  <rect class="cls-11" x="1223.59" y="2443.25" width="44.08" height="21.94"/>
  <rect class="cls-10" x="1340.29" y="2073.42" width="819.55" height="507.37"/>
  <rect class="cls-12" x="2102.31" y="2274.02" width="57.53" height="117.05"/>
  <rect class="cls-12" x="1340.29" y="2274.02" width="57.53" height="117.05"/>
  <circle class="cls-12" cx="1750.06" cy="2327.11" r="65.22"/>
  <line class="cls-12" x1="1750.06" y1="2073.42" x2="1750.06" y2="2580.79"/>
  <line class="cls-12" x1="1184.73" y1="2317.35" x2="1306.52" y2="2317.35"/>
  <g>
    <path class="cls-5" d="M3069.64,495.25c-136.49-8.3-272.99-16.6-409.48-24.91l-2.73,76.1c-.02.41-.06.81-.08,1.22l-3.2,89.43c-1.49,41.55,33.13,76.37,77.33,77.77l250.11,7.92c44.2,1.4,81.24-31.15,82.73-72.7l3.2-89.43c.07-1.84.04-3.65-.04-5.46.72-19.98,1.43-39.96,2.15-59.94Z"/>
    <path class="cls-10" d="M2779.84,702.86c.31,13.42.62,26.84.93,40.26,49.83,1.85,99.66,3.7,149.48,5.55.93-14.19,1.85-28.38,2.78-42.58-25.15-5.86-50.29-11.72-75.44-17.59-25.92,4.78-51.83,9.56-77.75,14.35Z"/>
    <g>
      <rect class="cls-12" x="2708.48" y="540.25" width="124.03" height="56.98" transform="translate(29.18 -127.16) rotate(2.64)"/>
      <rect class="cls-12" x="2895.39" y="548.88" width="124.03" height="56.98" transform="translate(29.77 -135.77) rotate(2.64)"/>
      <rect class="cls-12" x="2705.16" y="612.17" width="124.03" height="56.98" transform="translate(32.49 -126.93) rotate(2.64)"/>
      <rect class="cls-12" x="2892.07" y="620.8" width="124.03" height="56.98" transform="translate(33.09 -135.54) rotate(2.64)"/>
      <line class="cls-12" x1="2755.04" y1="538.57" x2="2752.37" y2="596.43"/>
      <line class="cls-12" x1="2775" y1="539.44" x2="2772.33" y2="597.3"/>
      <line class="cls-12" x1="2792.73" y1="542.05" x2="2790.13" y2="598.18"/>
      <line class="cls-12" x1="2708.5" y1="568.33" x2="2832.16" y2="574.04"/>
      <line class="cls-12" x1="2751.7" y1="610.81" x2="2749.03" y2="668.68"/>
      <line class="cls-12" x1="2771.66" y1="611.68" x2="2768.99" y2="669.55"/>
      <line class="cls-12" x1="2789.39" y1="614.3" x2="2786.8" y2="670.42"/>
      <line class="cls-12" x1="2706.38" y1="640.65" x2="2830.04" y2="646.36"/>
      <line class="cls-12" x1="2938.77" y1="547.6" x2="2936.1" y2="605.47"/>
      <line class="cls-12" x1="2957.06" y1="548.45" x2="2954.39" y2="606.31"/>
      <line class="cls-12" x1="2976.46" y1="551.09" x2="2973.86" y2="607.21"/>
      <line class="cls-12" x1="2895.44" y1="577.37" x2="3019.1" y2="583.08"/>
      <line class="cls-12" x1="2935.48" y1="618.76" x2="2932.81" y2="676.62"/>
      <line class="cls-12" x1="2953.78" y1="619.6" x2="2951.11" y2="677.47"/>
      <line class="cls-12" x1="2973.17" y1="622.24" x2="2970.58" y2="678.36"/>
      <line class="cls-12" x1="2892.25" y1="648.6" x2="3015.91" y2="654.31"/>
    </g>
  </g>
  <g>
    <rect class="cls-14" x="697.66" y="1487.95" width="44.05" height="481.39" transform="translate(187.97 -66.75) rotate(6.11)"/>
    <line class="cls-13" x1="714.11" y1="1570.61" x2="757.91" y2="1575.3"/>
    <line class="cls-13" x1="706.1" y1="1645.47" x2="749.91" y2="1650.16"/>
    <line class="cls-13" x1="698.42" y1="1720.33" x2="742.23" y2="1725.01"/>
    <line class="cls-13" x1="689.2" y1="1800.34" x2="733" y2="1805.03"/>
    <line class="cls-13" x1="680.98" y1="1880.25" x2="724.79" y2="1884.93"/>
  </g>
  <g>
    <rect class="cls-14" x="631.53" y="2034.39" width="44.05" height="624.92" transform="translate(253.36 -56.21) rotate(6.11)"/>
    <line class="cls-13" x1="657.12" y1="2113.71" x2="700.96" y2="2118.4"/>
    <line class="cls-13" x1="646.61" y1="2216.54" x2="690.46" y2="2221.23"/>
    <line class="cls-13" x1="635.64" y1="2312.82" x2="679.49" y2="2317.51"/>
    <line class="cls-13" x1="626.28" y1="2400.36" x2="670.12" y2="2405.05"/>
    <line class="cls-13" x1="616.91" y1="2487.9" x2="660.76" y2="2492.59"/>
    <line class="cls-13" x1="607.55" y1="2575.44" x2="651.39" y2="2580.13"/>
  </g>
  <rect class="cls-13" x="1322.49" y="1883.75" width="361.68" height="45.6"/>
  <rect class="cls-13" x="1558.46" y="1837.25" width="229.92" height="34.29"/>
  <rect class="cls-13" x="1818.63" y="1871.54" width="88.74" height="72.61"/>
  <rect class="cls-13" x="1926.87" y="1871.54" width="120.34" height="88.74"/>
  <rect class="cls-14" x="2435.4" y="1988.43" width="66.9" height="44.26"/>
  <rect class="cls-14" x="2468.85" y="1882.43" width="75.39" height="75.39"/>
  <rect class="cls-14" x="2477.6" y="1744.52" width="135.85" height="34.99" transform="translate(-229.51 389.58) rotate(-8.38)"/>
  <g>
    <rect class="cls-14" x="1019.42" y="2086.34" width="22.79" height="170.91" transform="translate(802.68 -221.37) rotate(19.95)"/>
    <line class="cls-13" x1="1033.23" y1="2135.19" x2="1052.45" y2="2142.16"/>
    <line class="cls-13" x1="1009.19" y1="2201.42" x2="1028.41" y2="2208.4"/>
  </g>
  <g>
    <rect class="cls-14" x="1116.11" y="1944.84" width="22.79" height="170.91" transform="translate(1908.73 -156.72) rotate(48.7)"/>
    <line class="cls-13" x1="1147.22" y1="1999.36" x2="1160.72" y2="2014.72"/>
    <line class="cls-13" x1="1094.28" y1="2045.86" x2="1107.78" y2="2061.23"/>
  </g>
  <g>
    <rect class="cls-14" x="1024.91" y="2407.83" width="22.79" height="170.91" transform="translate(-788.36 503.06) rotate(-19.95)"/>
    <line class="cls-13" x1="1038.71" y1="2529.9" x2="1057.93" y2="2522.92"/>
    <line class="cls-13" x1="1014.67" y1="2463.66" x2="1033.89" y2="2456.68"/>
  </g>
  <g>
    <rect class="cls-14" x="1125.5" y="2546.27" width="22.79" height="170.91" transform="translate(-1639.15 1916.13) rotate(-52.18)"/>
    <line class="cls-13" x1="1158.46" y1="2661.4" x2="1170.99" y2="2645.25"/>
    <line class="cls-13" x1="1102.79" y1="2618.19" x2="1115.33" y2="2602.04"/>
  </g>
  <g>
    <path class="cls-14" d="M1581.42,2521.17c-.19,10.58-.38,21.15-.58,31.73h58.26v24.29h232.48v-23.71h50.24v-31.73h-52.55v-58.27h-230.75v57.88c-19.04-.06-38.07-.12-57.11-.19Z"/>
    <rect class="cls-9" x="1652.65" y="2473.94" width="204.8" height="93.54"/>
  </g>
  <g>
    <rect class="cls-14" x="1899.39" y="2567.12" width="137.28" height="46.8"/>
    <line class="cls-13" x1="1944.37" y1="2567.12" x2="1944.37" y2="2613.92"/>
    <line class="cls-13" x1="1991.69" y1="2567.12" x2="1991.69" y2="2613.92"/>
  </g>
  <g>
    <rect class="cls-14" x="1532.96" y="2484.92" width="47.88" height="21.95"/>
    <rect class="cls-14" x="1519.99" y="2519.84" width="47.88" height="21.95" transform="translate(4074.74 986.88) rotate(90)"/>
    <rect class="cls-14" x="1512.69" y="2554.75" width="42.21" height="164.69"/>
    <line class="cls-13" x1="1512.69" y1="2589.03" x2="1554.9" y2="2589.03"/>
    <line class="cls-13" x1="1512.69" y1="2619.86" x2="1554.9" y2="2619.86"/>
    <line class="cls-13" x1="1512.69" y1="2652.52" x2="1554.9" y2="2652.52"/>
    <line class="cls-13" x1="1512.69" y1="2685.18" x2="1552.87" y2="2685.18"/>
  </g>
  <g>
    <rect class="cls-14" x="1277.42" y="2679.06" width="177.67" height="40.38"/>
    <line class="cls-13" x1="1320.34" y1="2678.05" x2="1320.34" y2="2718.43"/>
    <line class="cls-13" x1="1366.26" y1="2678.05" x2="1366.26" y2="2718.43"/>
    <line class="cls-13" x1="1411.85" y1="2678.31" x2="1411.85" y2="2718.43"/>
  </g>
  <circle class="cls-4" cx="1905.52" cy="834.68" r="93.99"/>
  <circle class="cls-4" cx="1572.32" cy="909.61" r="64.22"/>
  <circle class="cls-4" cx="1730.53" cy="607.07" r="64.22"/>
  <circle class="cls-4" cx="1981.09" cy="534.56" r="64.22"/>
  <circle class="cls-4" cx="2076.93" cy="1015.93" r="64.22"/>
  <circle class="cls-4" cx="2266.76" cy="918.54" r="64.22"/>
  <circle class="cls-4" cx="1385.79" cy="982.76" r="47.63"/>
  <circle class="cls-4" cx="1225.45" cy="957.51" r="56.29"/>
  <circle class="cls-4" cx="1756.24" cy="1010.4" r="36.57"/>
  <circle class="cls-4" cx="1683.1" cy="777.26" r="36.57"/>
  <circle class="cls-4" cx="1374.73" cy="854.32" r="36.57"/>
  <circle class="cls-4" cx="1916.87" cy="648.22" r="36.57"/>
  <circle class="cls-4" cx="2100.88" cy="648.22" r="36.57"/>
  <circle class="cls-4" cx="2109.52" cy="790.11" r="64.22"/>
  <circle class="cls-4" cx="1553.22" cy="684.79" r="47.63"/>
  <circle class="cls-4" cx="1553.22" cy="553.47" r="36.57"/>
  <rect class="cls-3" x="909.38" y="1594.32" width="148.85" height="64.35" rx="32.17" ry="32.17"/>
  <line class="cls-13" x1="968.96" y1="1910.95" x2="1117.73" y2="1950.54"/>
  <path class="cls-13" d="M983.8,1653.62v42.07c56.36,25.84,112.72,51.68,169.08,77.52h425.24"/>
  <polygon class="cls-3" points="1142.84 1956.83 1119.34 1939.75 1114.36 1962.53 1142.84 1956.83"/>
  <polygon class="cls-3" points="1602.44 1773.21 1575.84 1761.56 1575.84 1784.87 1602.44 1773.21"/>
  <text class="cls-2" transform="translate(954.75 1636.7)"><tspan x="0" y="0">입장</tspan></text>
  <rect class="cls-3" x="2416.93" y="1784.62" width="200.6" height="67.19" rx="33.6" ry="33.6"/>
  <text class="cls-2" transform="translate(2460.73 1828.78)"><tspan x="0" y="0">입장/퇴장</tspan></text>
  <text class="cls-1" transform="translate(1689.65 2341.07)"><tspan x="0" y="0">대운동장</tspan></text>
  <text class="cls-1" transform="translate(2087.22 1661.56)"><tspan x="0" y="0">운용재</tspan></text>
  <text class="cls-1" transform="translate(2783.69 951.72)"><tspan x="0" y="0">복지회관</tspan></text>
  <text class="cls-1" transform="translate(2545.52 229.4)"><tspan x="0" y="0">학생회관</tspan></text>
  <text class="cls-1" transform="translate(1135.47 397)"><tspan x="0" y="0">생명공학관</tspan></text>
  <text class="cls-1" transform="translate(832.29 862.83)"><tspan x="0" y="0">흡연구역</tspan></text>
  <text class="cls-1" transform="translate(523.51 1030.39)"><tspan x="0" y="0">신관B</tspan></text>
  <text class="cls-1" transform="translate(220.47 1802.69)"><tspan x="0" y="0">신관A</tspan></text>
  <circle class="cls-4" cx="2776.25" cy="1478.96" r="93.99"/>
  <circle class="cls-4" cx="2656.37" cy="1305.35" r="64.22"/>
  <circle class="cls-4" cx="2900.86" cy="1348.4" r="36.57"/>
  <circle class="cls-4" cx="2654.1" cy="1653.62" r="36.57"/>
  <circle class="cls-4" cx="3001.74" cy="1563.95" r="64.22"/>
  <text class="cls-1" transform="translate(582.6 2705.74)"><tspan x="0" y="0">후문</tspan></text>
  <text class="cls-1" transform="translate(1618.58 1174.43)"><tspan x="0" y="0">산책로</tspan></text>
  <text class="cls-1" transform="translate(1720.27 2533.4)"><tspan x="0" y="0">무대</tspan></text>
  <path class="cls-7" d="M-1.83,2797.88c186.76-25.06,373.52-50.12,560.27-75.19,70.88-.08,141.75-.15,212.63-.23l1491.82,357.75h1171.8v355.25c-486.5-6.36-691.72-12.72-1178.22-19.08-531.5-90.64-1063.01-181.29-1594.52-271.93C441.74,3192.98,220.21,3242.03,0,3290.55c-1.05-164.05-.78-328.63-1.83-492.68Z"/>
  <rect class="cls-4" x="208.74" y="3434.69" width="288.5" height="114.4"/>
  <rect class="cls-4" x="456.64" y="3601.45" width="245.93" height="97.52"/>
  <rect class="cls-4" x="824.49" y="3478.66" width="245.93" height="97.52"/>
  <rect class="cls-4" x="137.37" y="3732.85" width="200.14" height="79.37"/>
  <rect class="cls-4" x="767.93" y="3750.37" width="200.14" height="79.37"/>
  <rect class="cls-4" x="893.66" y="3941.56" width="245.93" height="97.52"/>
  <rect class="cls-4" x="1167.82" y="3659.29" width="164.43" height="65.2"/>
  <rect class="cls-4" x="742.27" y="4204.56" width="164.43" height="65.2"/>
  <rect class="cls-4" x="198.39" y="4112.27" width="164.43" height="65.2"/>
  <rect class="cls-4" x="2277.38" y="3710.87" width="245.93" height="97.52"/>
  <rect class="cls-4" x="2485.81" y="3897.43" width="288.5" height="114.4"/>
  <rect class="cls-4" x="2857.14" y="3710.87" width="288.5" height="114.4"/>
  <rect class="cls-4" x="2761.34" y="4100.87" width="164.43" height="65.2"/>
  <rect class="cls-4" x="3113.82" y="4204.56" width="164.43" height="65.2"/>
  <rect class="cls-3" x="856.15" y="1874.41" width="148.85" height="64.35" rx="32.17" ry="32.17"/>
  <text class="cls-2" transform="translate(904.77 1916.82)"><tspan x="0" y="0">퇴장</tspan></text>
  <rect class="cls-4" x="1189.6" y="4401.75" width="164.43" height="65.2"/>
  <rect class="cls-4" x="85.77" y="4385.59" width="245.93" height="97.52"/>
  <rect class="cls-4" x="2102.31" y="3908.95" width="164.43" height="65.2"/>
  <rect class="cls-4" x="2392.97" y="4133.47" width="164.43" height="65.2"/>
  <rect class="cls-4" x="2774.92" y="4614.3" width="164.43" height="65.2"/>
  <rect class="cls-4" x="2139.51" y="4336.83" width="245.93" height="97.52"/>
  <rect class="cls-4" x="3145.64" y="3549.09" width="164.43" height="65.2"/>
  <rect class="cls-4" x="1066.64" y="4736.98" width="245.93" height="97.52"/>
  <rect class="cls-4" x="438.73" y="4753.14" width="164.43" height="65.2"/>
  <rect class="cls-4" x="2259.79" y="5039.36" width="164.43" height="65.2"/>
  <rect class="cls-4" x="2342" y="4704.37" width="164.43" height="65.2"/>
  <g>
    <rect class="cls-14" x="1334.37" y="2103.44" width="42.32" height="443.31"/>
    <line class="cls-13" x1="1355.53" y1="2103.44" x2="1355.53" y2="2546.75"/>
    <line class="cls-13" x1="1334.37" y1="2202.12" x2="1376.69" y2="2202.12"/>
    <line class="cls-13" x1="1334.37" y1="2327.47" x2="1376.69" y2="2327.47"/>
    <line class="cls-13" x1="1334.37" y1="2452.81" x2="1376.69" y2="2452.81"/>
  </g>
  <g>
    <rect class="cls-14" x="2450.19" y="2079.78" width="104.49" height="224.46"/>
    <rect class="cls-14" x="2287.86" y="2079.78" width="104.49" height="224.46"/>
    <rect class="cls-14" x="2450.19" y="2350.69" width="104.49" height="224.46"/>
    <rect class="cls-14" x="2287.86" y="2350.69" width="104.49" height="224.46"/>
    <line class="cls-13" x1="2312.57" y1="2079.78" x2="2312.57" y2="2304.25"/>
    <line class="cls-13" x1="2340.11" y1="2079.78" x2="2340.11" y2="2304.25"/>
    <line class="cls-13" x1="2367.39" y1="2079.78" x2="2367.39" y2="2304.25"/>
    <line class="cls-13" x1="2287.86" y1="2130.96" x2="2392.35" y2="2130.96"/>
    <line class="cls-13" x1="2287.86" y1="2189.57" x2="2392.35" y2="2189.57"/>
    <line class="cls-13" x1="2289.09" y1="2253.08" x2="2391.12" y2="2253.08"/>
    <line class="cls-13" x1="2312.57" y1="2350.69" x2="2312.57" y2="2575.15"/>
    <line class="cls-13" x1="2340.11" y1="2350.69" x2="2340.11" y2="2575.15"/>
    <line class="cls-13" x1="2367.39" y1="2350.69" x2="2367.39" y2="2575.15"/>
    <line class="cls-13" x1="2287.86" y1="2401.86" x2="2392.35" y2="2401.86"/>
    <line class="cls-13" x1="2287.86" y1="2460.48" x2="2392.35" y2="2460.48"/>
    <line class="cls-13" x1="2289.09" y1="2523.98" x2="2391.12" y2="2523.98"/>
    <line class="cls-13" x1="2474.9" y1="2350.69" x2="2474.9" y2="2575.15"/>
    <line class="cls-13" x1="2502.44" y1="2350.69" x2="2502.44" y2="2575.15"/>
    <line class="cls-13" x1="2529.72" y1="2350.69" x2="2529.72" y2="2575.15"/>
    <line class="cls-13" x1="2450.19" y1="2401.86" x2="2554.68" y2="2401.86"/>
    <line class="cls-13" x1="2450.19" y1="2460.48" x2="2554.68" y2="2460.48"/>
    <line class="cls-13" x1="2451.42" y1="2523.98" x2="2553.45" y2="2523.98"/>
    <line class="cls-13" x1="2474.9" y1="2079.78" x2="2474.9" y2="2304.25"/>
    <line class="cls-13" x1="2502.44" y1="2079.78" x2="2502.44" y2="2304.25"/>
    <line class="cls-13" x1="2529.72" y1="2079.78" x2="2529.72" y2="2304.25"/>
    <line class="cls-13" x1="2450.19" y1="2130.96" x2="2554.68" y2="2130.96"/>
    <line class="cls-13" x1="2450.19" y1="2189.57" x2="2554.68" y2="2189.57"/>
    <line class="cls-13" x1="2451.42" y1="2253.08" x2="2553.45" y2="2253.08"/>
  </g>
</svg>