<?xml version="1.0" encoding="UTF-8"?>
<svg id="_레이어_1" data-name="레이어 1" xmlns="http://www.w3.org/2000/svg" version="1.1" viewBox="0 0 3831.17 5005.61">
  <defs>
    <style>
      .cls-1 {
        font-size: 36px;
      }

      .cls-1, .cls-2 {
        font-family: AppleSDGothicNeo-SemiBold-KSCpc-EUC-H, 'Apple SD Gothic Neo';
        font-weight: 600;
      }

      .cls-1, .cls-3 {
        fill: #fff;
      }

      .cls-4 {
        fill: #49584f;
        opacity: .51;
      }

      .cls-4, .cls-5, .cls-6, .cls-7, .cls-8, .cls-9, .cls-3 {
        stroke-width: 0px;
      }

      .cls-10, .cls-11, .cls-12 {
        stroke: #2d3d33;
      }

      .cls-10, .cls-11, .cls-12, .cls-13, .cls-14 {
        stroke-miterlimit: 10;
        stroke-width: 3px;
      }

      .cls-10, .cls-6 {
        fill: #56655c;
      }

      .cls-11, .cls-9, .cls-14 {
        fill: #546259;
      }

      .cls-2 {
        fill: #000;
        font-size: 47.07px;
      }

      .cls-5 {
        fill: #c7ccc8;
      }

      .cls-7 {
        fill: #2e4035;
      }

      .cls-12, .cls-13 {
        fill: none;
      }

      .cls-8 {
        fill: #16231a;
      }

      .cls-13, .cls-14 {
        stroke: #fff;
      }
    </style>
  </defs>
  <rect class="cls-7" x="0" y="0" width="3832.63" height="5005.61"/>
  <path class="cls-8" d="M340.42,0c134.04,281.83,440.94,906.89,574.98,1188.71,43.61-12,87.21-23.99,130.82-35.99C912.97,882.89,606.85,269.83,473.6,0h-133.19Z"/>
  <path class="cls-8" d="M1046.22,1152.72c223.72-214.24,451.61-430.71,675.34-644.95,559.35,35.56,1551.72,96.27,2111.07,131.83v83.89c-544.37-33.05-1521.77-91.25-2066.13-124.29-221.17,208.43-448.81,422.77-669.98,631.2-7.85-4.54-21.76-13.97-33.27-30.9-12.91-19-16.08-37.58-17.03-46.77Z"/>
  <path class="cls-8" d="M1070.13,1306.18h1491.88c-29.25-234.02-58.51-468.04-87.76-702.06,29.25,1.22,58.51,2.44,87.76,3.66,54.85,444.88,113.2,912.3,168.04,1357.18,111.59-1.93,223.18-3.85,334.77-5.78,111.59-1.93,654.75-23.16,766.34-25.08v65.82c-246.31,11.41-924.19,42.13-1170.5,53.54-26.54-219.93-53.09-439.86-79.63-659.79-508.11,3.79-1016.23,7.58-1524.34,11.38,4.48-32.95,8.95-65.9,13.43-98.85Z"/>
  <path class="cls-8" d="M915.4,1188.71c43.61-12,87.21-23.99,130.82-35.99,16.76,25.89,33.53,51.78,50.29,77.68-54.46,561.39-108.92,1122.78-163.38,1684.17h-200.48c60.92-575.29,121.83-1150.57,182.75-1725.86Z"/>
  <path class="cls-14" d="M407.01,692.69c46.64-21.36,93.27-42.71,139.91-64.07,23.97,47.51,47.94,95.01,71.91,142.52,6.1-2.62,12.2-5.23,18.31-7.85,49.69,98.94,99.37,197.87,149.06,296.81l-17,10.46c14.38,24.84,28.77,49.69,43.15,74.53,2.82,188.68,5.64,377.36,8.47,566.04-31.97,1.42-63.95,2.84-95.92,4.26-1.42-11.72-2.84-23.45-4.26-35.17-10.3-.36-20.61-.71-30.91-1.07-.36-21.67-.71-43.34-1.07-65.01h-21.34c-3.19-147.08-6.38-294.16-9.57-441.24-28.07-47.96-56.13-95.92-84.2-143.88,5.33-2.84,10.66-5.68,15.99-8.53-27.36-50.45-54.71-100.9-82.07-151.34-4.97,3.2-9.95,6.39-14.92,9.59-28.51-62.02-57.02-124.04-85.54-186.05Z"/>
  <path class="cls-14" d="M377.56,1873.69c34.11-118.61,68.22-237.21,102.33-355.82,49.61,15.5,99.23,31.01,148.84,46.51-36.82,127.13-73.65,254.27-110.47,381.4,83.34,103.1,166.67,206.21,250.01,309.31-10.08,9.3-20.16,18.61-30.23,27.91,6.98,9.69,13.95,19.38,20.93,29.07-24.42,20.54-48.84,41.09-73.26,61.63-7.36-8.14-14.73-16.28-22.09-24.42-6.98,4.65-13.95,9.3-20.93,13.95-52.71-66.28-105.43-132.56-158.14-198.84,6.98-5.43,13.95-10.85,20.93-16.28-10.85-15.89-21.71-31.78-32.56-47.68-48.84-13.95-97.68-27.91-146.51-41.86,2.71-6.2,5.43-12.4,8.14-18.6-8.14-1.94-16.28-3.88-24.42-5.81,16.28-54.26,32.56-108.53,48.84-162.79,6.2.78,12.4,1.55,18.61,2.33Z"/>
  <path class="cls-14" d="M1079.89,343.24c9.47,9.92,18.95,19.85,28.42,29.77-5.75,93.05-11.5,186.1-17.26,279.16,25.04.34,50.08.68,75.12,1.02,18.27,25.38,36.54,50.76,54.82,76.13,5.75-107.6,11.5-215.2,17.26-322.81,98.13,5.08,196.26,10.15,294.38,15.23,17.6,25.04,35.19,50.08,52.79,75.12,3.38-51.21,6.77-102.41,10.15-153.62h-515.68Z"/>
  <path class="cls-14" d="M2225.77,343.24c-14.25,13.17-28.5,26.35-42.75,39.52-.75,19.87-1.5,39.75-2.25,59.62,115.12,7.12,230.25,14.25,345.37,21.37l-1.12,14.62c192.75,8.25,385.49,16.5,578.24,24.75v-27l156.37,10.12c1.5-23.62,3-47.25,4.5-70.87,25.12,2.62,50.25,5.25,75.37,7.87.38-26.67.75-53.35,1.12-80.02h-1114.85Z"/>
  <path class="cls-14" d="M2815.92,1048.6c138.8,6.16,277.61,12.32,416.41,18.48-.82,51.33-1.64,102.67-2.46,154-139.63-4.52-279.25-9.03-418.88-13.55,1.64-52.98,3.29-105.95,4.93-158.93Z"/>
  <path class="cls-13" d="M3055.38,1164.55c44.23,1.96,88.47,3.93,132.7,5.89-.26,16.36-.52,32.72-.79,49.08-44.5-1.44-88.99-2.88-133.49-4.32.52-16.88,1.05-33.77,1.57-50.65Z"/>
  <path class="cls-14" d="M3331.16,1378.81c22.81.57,45.62,1.14,68.44,1.71v238.92c-28.24-.29-56.47-.57-84.71-.86,5.42-79.93,10.85-159.85,16.27-239.78Z"/>
  <rect class="cls-9" x="2950.19" y="2122.64" width="584.17" height="661.66"/>
  <rect class="cls-13" x="967.5" y="1007.99" width="209.05" height="74.38"/>
  <g>
    <rect class="cls-12" x="2950.19" y="2257.18" width="140.02" height="392.58"/>
    <rect class="cls-12" x="2950.19" y="2366.8" width="70.01" height="179.01"/>
    <path class="cls-12" d="M3090.99,2536.19c4.99-4.85,34.58-34.58,33.59-81.62-.95-45.06-29.26-72.87-34.6-77.92"/>
  </g>
  <rect class="cls-14" x="2189.58" y="1773.68" width="227.25" height="144.61" transform="translate(-150.47 205.29) rotate(-4.94)"/>
  <rect class="cls-14" x="2432.36" y="1756.98" width="121.33" height="258.44" transform="translate(-153.23 221.79) rotate(-4.94)"/>
  <g>
    <rect class="cls-11" x="1172.95" y="2128.56" width="1498.98" height="784.66" rx="392.33" ry="392.33"/>
    <rect class="cls-11" x="1199.39" y="2157.7" width="1448.18" height="724.84" rx="362.42" ry="362.42"/>
    <rect class="cls-11" x="1222.74" y="2183" width="1399.4" height="671.74" rx="335.87" ry="335.87"/>
    <rect class="cls-11" x="1253.3" y="2208.93" width="1340.35" height="619.89" rx="305" ry="305"/>
    <rect class="cls-11" x="1357.11" y="2355.88" width="121.79" height="302.93"/>
    <path class="cls-12" d="M1461.56,2356.04c0,24.05-19.5,43.55-43.55,43.55s-43.55-19.5-43.55-43.55"/>
    <path class="cls-12" d="M1374.45,2658.81c0-24.05,19.5-43.55,43.55-43.55s43.55,19.5,43.55,43.55"/>
    <circle class="cls-11" cx="1418" cy="2511.13" r="26.19"/>
    <rect class="cls-11" x="1395.96" y="2355.88" width="44.08" height="21.94"/>
    <rect class="cls-11" x="1395.96" y="2637.03" width="44.08" height="21.94"/>
    <rect class="cls-10" x="1512.67" y="2267.2" width="819.55" height="507.37"/>
    <rect class="cls-12" x="2274.69" y="2467.8" width="57.53" height="117.05"/>
    <rect class="cls-12" x="1512.67" y="2467.8" width="57.53" height="117.05"/>
    <circle class="cls-12" cx="1922.44" cy="2520.89" r="65.22"/>
    <line class="cls-12" x1="1922.44" y1="2267.2" x2="1922.44" y2="2774.58"/>
    <line class="cls-12" x1="1357.11" y1="2511.13" x2="1478.9" y2="2511.13"/>
  </g>
  <g>
    <path class="cls-6" d="M3242.01,689.03c-136.49-8.3-272.99-16.6-409.48-24.91l-2.73,76.1c-.02.41-.06.81-.08,1.22l-3.2,89.43c-1.49,41.55,33.13,76.37,77.33,77.77l250.11,7.92c44.2,1.4,81.24-31.15,82.73-72.7l3.2-89.43c.07-1.84.04-3.65-.04-5.46.72-19.98,1.43-39.96,2.15-59.94Z"/>
    <path class="cls-10" d="M2952.22,896.64c.31,13.42.62,26.84.93,40.26,49.83,1.85,99.66,3.7,149.48,5.55.93-14.19,1.85-28.38,2.78-42.58-25.15-5.86-50.29-11.72-75.44-17.59-25.92,4.78-51.83,9.56-77.75,14.35Z"/>
    <g>
      <rect class="cls-12" x="2880.86" y="734.03" width="124.03" height="56.98" transform="translate(38.3 -134.91) rotate(2.64)"/>
      <rect class="cls-12" x="3067.77" y="742.66" width="124.03" height="56.98" transform="translate(38.89 -143.52) rotate(2.64)"/>
      <rect class="cls-12" x="2877.54" y="805.95" width="124.03" height="56.98" transform="translate(41.61 -134.68) rotate(2.64)"/>
      <rect class="cls-12" x="3064.45" y="814.58" width="124.03" height="56.98" transform="translate(42.21 -143.29) rotate(2.64)"/>
      <line class="cls-12" x1="2927.41" y1="732.35" x2="2924.74" y2="790.21"/>
      <line class="cls-12" x1="2947.38" y1="733.22" x2="2944.7" y2="791.08"/>
      <line class="cls-12" x1="2965.1" y1="735.83" x2="2962.51" y2="791.96"/>
      <line class="cls-12" x1="2880.88" y1="762.11" x2="3004.53" y2="767.82"/>
      <line class="cls-12" x1="2924.08" y1="804.59" x2="2921.41" y2="862.46"/>
      <line class="cls-12" x1="2944.04" y1="805.46" x2="2941.37" y2="863.33"/>
      <line class="cls-12" x1="2961.77" y1="808.08" x2="2959.18" y2="864.2"/>
      <line class="cls-12" x1="2878.76" y1="834.44" x2="3002.42" y2="840.14"/>
      <line class="cls-12" x1="3111.14" y1="741.38" x2="3108.47" y2="799.25"/>
      <line class="cls-12" x1="3129.44" y1="742.23" x2="3126.77" y2="800.09"/>
      <line class="cls-12" x1="3148.83" y1="744.87" x2="3146.24" y2="800.99"/>
      <line class="cls-12" x1="3067.82" y1="771.15" x2="3191.48" y2="776.86"/>
      <line class="cls-12" x1="3107.86" y1="812.54" x2="3105.19" y2="870.4"/>
      <line class="cls-12" x1="3126.15" y1="813.38" x2="3123.48" y2="871.25"/>
      <line class="cls-12" x1="3145.55" y1="816.02" x2="3142.96" y2="872.15"/>
      <line class="cls-12" x1="3064.63" y1="842.38" x2="3188.29" y2="848.09"/>
    </g>
  </g>
  <g>
    <rect class="cls-14" x="870.04" y="1681.73" width="44.05" height="481.39" transform="translate(209.56 -83.99) rotate(6.11)"/>
    <line class="cls-13" x1="886.48" y1="1764.39" x2="930.29" y2="1769.08"/>
    <line class="cls-13" x1="878.47" y1="1839.25" x2="922.28" y2="1843.94"/>
    <line class="cls-13" x1="870.8" y1="1914.11" x2="914.61" y2="1918.79"/>
    <line class="cls-13" x1="861.57" y1="1994.13" x2="905.38" y2="1998.81"/>
    <line class="cls-13" x1="853.36" y1="2074.03" x2="897.17" y2="2078.71"/>
  </g>
  <g>
    <rect class="cls-14" x="803.9" y="2228.17" width="44.05" height="624.92" transform="translate(274.95 -73.44) rotate(6.11)"/>
    <line class="cls-13" x1="829.49" y1="2307.49" x2="873.34" y2="2312.19"/>
    <line class="cls-13" x1="818.99" y1="2410.32" x2="862.83" y2="2415.01"/>
    <line class="cls-13" x1="808.02" y1="2506.6" x2="851.87" y2="2511.3"/>
    <line class="cls-13" x1="798.66" y1="2594.14" x2="842.5" y2="2598.83"/>
    <line class="cls-13" x1="789.29" y1="2681.68" x2="833.14" y2="2686.37"/>
    <line class="cls-13" x1="779.93" y1="2769.22" x2="823.77" y2="2773.91"/>
  </g>
  <rect class="cls-13" x="1494.87" y="2077.53" width="361.68" height="45.6"/>
  <rect class="cls-13" x="1730.84" y="2031.03" width="229.92" height="34.29"/>
  <rect class="cls-13" x="1991.01" y="2065.32" width="88.74" height="72.61"/>
  <rect class="cls-13" x="2099.24" y="2065.32" width="120.34" height="88.74"/>
  <rect class="cls-14" x="2607.78" y="2182.22" width="66.9" height="44.26"/>
  <rect class="cls-14" x="2641.23" y="2076.21" width="75.39" height="75.39"/>
  <rect class="cls-14" x="2649.97" y="1938.3" width="135.85" height="34.99" transform="translate(-255.9 416.75) rotate(-8.38)"/>
  <g>
    <rect class="cls-14" x="2597.18" y="2271.19" width="104.49" height="224.46"/>
    <rect class="cls-14" x="2434.85" y="2271.19" width="104.49" height="224.46"/>
    <rect class="cls-14" x="2597.18" y="2542.09" width="104.49" height="224.46"/>
    <rect class="cls-14" x="2434.85" y="2542.09" width="104.49" height="224.46"/>
    <line class="cls-13" x1="2459.56" y1="2271.19" x2="2459.56" y2="2495.65"/>
    <line class="cls-13" x1="2487.1" y1="2271.19" x2="2487.1" y2="2495.65"/>
    <line class="cls-13" x1="2514.38" y1="2271.19" x2="2514.38" y2="2495.65"/>
    <line class="cls-13" x1="2434.85" y1="2322.36" x2="2539.34" y2="2322.36"/>
    <line class="cls-13" x1="2434.85" y1="2380.98" x2="2539.34" y2="2380.98"/>
    <line class="cls-13" x1="2436.08" y1="2444.48" x2="2538.11" y2="2444.48"/>
    <line class="cls-13" x1="2459.56" y1="2542.09" x2="2459.56" y2="2766.56"/>
    <line class="cls-13" x1="2487.1" y1="2542.09" x2="2487.1" y2="2766.56"/>
    <line class="cls-13" x1="2514.38" y1="2542.09" x2="2514.38" y2="2766.56"/>
    <line class="cls-13" x1="2434.85" y1="2593.27" x2="2539.34" y2="2593.27"/>
    <line class="cls-13" x1="2434.85" y1="2651.88" x2="2539.34" y2="2651.88"/>
    <line class="cls-13" x1="2436.08" y1="2715.39" x2="2538.11" y2="2715.39"/>
    <line class="cls-13" x1="2621.89" y1="2542.09" x2="2621.89" y2="2766.56"/>
    <line class="cls-13" x1="2649.43" y1="2542.09" x2="2649.43" y2="2766.56"/>
    <line class="cls-13" x1="2676.71" y1="2542.09" x2="2676.71" y2="2766.56"/>
    <line class="cls-13" x1="2597.18" y1="2593.27" x2="2701.67" y2="2593.27"/>
    <line class="cls-13" x1="2597.18" y1="2651.88" x2="2701.67" y2="2651.88"/>
    <line class="cls-13" x1="2598.41" y1="2715.39" x2="2700.44" y2="2715.39"/>
    <line class="cls-13" x1="2621.89" y1="2271.19" x2="2621.89" y2="2495.65"/>
    <line class="cls-13" x1="2649.43" y1="2271.19" x2="2649.43" y2="2495.65"/>
    <line class="cls-13" x1="2676.71" y1="2271.19" x2="2676.71" y2="2495.65"/>
    <line class="cls-13" x1="2597.18" y1="2322.36" x2="2701.67" y2="2322.36"/>
    <line class="cls-13" x1="2597.18" y1="2380.98" x2="2701.67" y2="2380.98"/>
    <line class="cls-13" x1="2598.41" y1="2444.48" x2="2700.44" y2="2444.48"/>
  </g>
  <g>
    <rect class="cls-14" x="1504.06" y="2299.24" width="42.32" height="443.31"/>
    <line class="cls-13" x1="1525.22" y1="2299.24" x2="1525.22" y2="2742.54"/>
    <line class="cls-13" x1="1504.06" y1="2397.92" x2="1546.38" y2="2397.92"/>
    <line class="cls-13" x1="1504.06" y1="2523.26" x2="1546.38" y2="2523.26"/>
    <line class="cls-13" x1="1504.06" y1="2648.61" x2="1546.38" y2="2648.61"/>
  </g>
  <g>
    <rect class="cls-14" x="1191.8" y="2280.12" width="22.79" height="170.91" transform="translate(879.12 -268.55) rotate(19.95)"/>
    <line class="cls-13" x1="1205.6" y1="2328.97" x2="1224.82" y2="2335.94"/>
    <line class="cls-13" x1="1181.57" y1="2395.21" x2="1200.79" y2="2402.18"/>
  </g>
  <g>
    <rect class="cls-14" x="1288.48" y="2138.62" width="22.79" height="170.91" transform="translate(2112.93 -220.33) rotate(48.7)"/>
    <line class="cls-13" x1="1319.6" y1="2193.14" x2="1333.09" y2="2208.5"/>
    <line class="cls-13" x1="1266.66" y1="2239.65" x2="1280.15" y2="2255.01"/>
  </g>
  <g>
    <rect class="cls-14" x="1197.28" y="2601.61" width="22.79" height="170.91" transform="translate(-844.13 573.48) rotate(-19.95)"/>
    <line class="cls-13" x1="1211.08" y1="2723.68" x2="1230.3" y2="2716.7"/>
    <line class="cls-13" x1="1187.05" y1="2657.44" x2="1206.27" y2="2650.46"/>
  </g>
  <g>
    <rect class="cls-14" x="1297.88" y="2740.05" width="22.79" height="170.91" transform="translate(-1725.55 2127.26) rotate(-52.18)"/>
    <line class="cls-13" x1="1330.83" y1="2855.18" x2="1343.37" y2="2839.03"/>
    <line class="cls-13" x1="1275.17" y1="2811.98" x2="1287.71" y2="2795.82"/>
  </g>
  <g>
    <path class="cls-14" d="M1753.79,2714.95c-.19,10.58-.38,21.15-.58,31.73h58.26v24.29h232.48v-23.71h50.24v-31.73h-52.55v-58.27h-230.75v57.88c-19.04-.06-38.07-.12-57.11-.19Z"/>
    <rect class="cls-5" x="1825.03" y="2667.72" width="204.8" height="93.54"/>
  </g>
  <g>
    <rect class="cls-14" x="2071.77" y="2760.9" width="137.28" height="46.8"/>
    <line class="cls-13" x1="2116.74" y1="2760.9" x2="2116.74" y2="2807.7"/>
    <line class="cls-13" x1="2164.07" y1="2760.9" x2="2164.07" y2="2807.7"/>
  </g>
  <g>
    <rect class="cls-14" x="1705.33" y="2678.7" width="47.88" height="21.95"/>
    <rect class="cls-14" x="1692.37" y="2713.62" width="47.88" height="21.95" transform="translate(4440.9 1008.28) rotate(90)"/>
    <rect class="cls-14" x="1685.07" y="2748.53" width="42.21" height="164.69"/>
    <line class="cls-13" x1="1685.07" y1="2782.82" x2="1727.28" y2="2782.82"/>
    <line class="cls-13" x1="1685.07" y1="2813.64" x2="1727.28" y2="2813.64"/>
    <line class="cls-13" x1="1685.07" y1="2846.3" x2="1727.28" y2="2846.3"/>
    <line class="cls-13" x1="1685.07" y1="2878.96" x2="1725.25" y2="2878.96"/>
  </g>
  <g>
    <rect class="cls-14" x="1449.8" y="2872.84" width="177.67" height="40.38"/>
    <line class="cls-13" x1="1492.72" y1="2871.84" x2="1492.72" y2="2912.22"/>
    <line class="cls-13" x1="1538.64" y1="2871.84" x2="1538.64" y2="2912.22"/>
    <line class="cls-13" x1="1584.22" y1="2872.1" x2="1584.22" y2="2912.22"/>
  </g>
  <circle class="cls-4" cx="2077.9" cy="1028.46" r="93.99"/>
  <circle class="cls-4" cx="1744.69" cy="1103.39" r="64.22"/>
  <circle class="cls-4" cx="1902.9" cy="800.85" r="64.22"/>
  <circle class="cls-4" cx="2153.47" cy="728.34" r="64.22"/>
  <circle class="cls-4" cx="2249.3" cy="1209.71" r="64.22"/>
  <circle class="cls-4" cx="2439.13" cy="1112.32" r="64.22"/>
  <circle class="cls-4" cx="1558.17" cy="1176.54" r="47.63"/>
  <circle class="cls-4" cx="1397.83" cy="1151.29" r="56.29"/>
  <circle class="cls-4" cx="1928.62" cy="1204.18" r="36.57"/>
  <circle class="cls-4" cx="1855.47" cy="971.04" r="36.57"/>
  <circle class="cls-4" cx="1547.11" cy="1048.1" r="36.57"/>
  <circle class="cls-4" cx="2089.25" cy="842" r="36.57"/>
  <circle class="cls-4" cx="2273.26" cy="842" r="36.57"/>
  <circle class="cls-4" cx="2281.9" cy="983.89" r="64.22"/>
  <circle class="cls-4" cx="1725.6" cy="878.58" r="47.63"/>
  <circle class="cls-4" cx="1725.6" cy="747.25" r="36.57"/>
  <rect class="cls-3" x="1025.29" y="1757.73" width="264.82" height="94.72" rx="47.36" ry="47.36"/>
  <rect class="cls-3" x="939.4" y="2062.99" width="208.91" height="94.72" rx="47.36" ry="47.36"/>
  <line class="cls-13" x1="1141.33" y1="2104.74" x2="1290.11" y2="2144.33"/>
  <path class="cls-13" d="M1156.18,1847.4v42.07c56.36,25.84,112.72,51.68,169.08,77.52h425.24"/>
  <polygon class="cls-3" points="1315.22 2150.61 1291.72 2133.54 1286.74 2156.31 1315.22 2150.61"/>
  <polygon class="cls-3" points="1774.82 1966.99 1748.22 1955.34 1748.22 1978.65 1774.82 1966.99"/>
  <text class="cls-2" transform="translate(1115.55 1819.91)"><tspan x="0" y="0">입장</tspan></text>
  <text class="cls-2" transform="translate(1003.66 2126.38)"><tspan x="0" y="0">퇴장</tspan></text>
  <rect class="cls-3" x="2563.93" y="1963.88" width="264.82" height="94.72" rx="47.36" ry="47.36"/>
  <text class="cls-2" transform="translate(2607.78 2028.55)"><tspan x="0" y="0">입장/퇴장</tspan></text>
  <text class="cls-1" transform="translate(1862.02 2534.85)"><tspan x="0" y="0">대운동장</tspan></text>
  <text class="cls-1" transform="translate(2259.6 1855.35)"><tspan x="0" y="0">운용재</tspan></text>
  <text class="cls-1" transform="translate(2956.06 1145.5)"><tspan x="0" y="0">복지회관</tspan></text>
  <text class="cls-1" transform="translate(2717.9 423.18)"><tspan x="0" y="0">학생회관</tspan></text>
  <text class="cls-1" transform="translate(1307.85 590.78)"><tspan x="0" y="0">생명공학관</tspan></text>
  <text class="cls-1" transform="translate(1004.66 1056.61)"><tspan x="0" y="0">흡연구역</tspan></text>
  <text class="cls-1" transform="translate(695.89 1224.17)"><tspan x="0" y="0">신관B</tspan></text>
  <text class="cls-1" transform="translate(392.84 1996.47)"><tspan x="0" y="0">신관A</tspan></text>
  <circle class="cls-4" cx="2948.63" cy="1672.74" r="93.99"/>
  <circle class="cls-4" cx="2828.75" cy="1499.13" r="64.22"/>
  <circle class="cls-4" cx="3073.24" cy="1542.18" r="36.57"/>
  <circle class="cls-4" cx="2826.48" cy="1847.4" r="36.57"/>
  <circle class="cls-4" cx="3174.11" cy="1757.73" r="64.22"/>
  <text class="cls-1" transform="translate(754.98 2899.52)"><tspan x="0" y="0">후문</tspan></text>
  <text class="cls-1" transform="translate(1790.96 1368.21)"><tspan x="0" y="0">산책로</tspan></text>
  <text class="cls-1" transform="translate(1892.65 2727.18)"><tspan x="0" y="0">무대</tspan></text>
  <path class="cls-8" d="M-58.07,3003.02c263.57-29.48,527.15-58.97,790.72-88.45,70.88-.08,141.75-.15,212.63-.23,497.27,119.25,994.55,238.5,1491.82,357.75h1453.07v355.25c-486.5-6.36-973-12.72-1459.49-19.08-531.51-90.64-1063.01-181.29-1594.52-271.93-298.71,51.5-597.43,103-896.14,154.51.64-162.61,1.28-325.21,1.91-487.82Z"/>
  <rect class="cls-4" x="407.01" y="3604.34" width="394.84" height="156.57"/>
  <rect class="cls-4" x="746.29" y="3832.56" width="336.58" height="133.47"/>
  <rect class="cls-4" x="1249.71" y="3664.51" width="336.58" height="133.47"/>
  <rect class="cls-4" x="172.38" y="4006.63" width="273.91" height="108.62"/>
  <rect class="cls-4" x="1172.31" y="4036.37" width="273.91" height="108.62"/>
  <rect class="cls-4" x="1344.38" y="4298.02" width="336.58" height="133.47"/>
  <rect class="cls-4" x="1719.6" y="3911.72" width="225.04" height="89.24"/>
  <rect class="cls-4" x="2018.27" y="4188.26" width="225.04" height="89.24"/>
  <rect class="cls-4" x="392.84" y="4531.66" width="225.04" height="89.24"/>
  <rect class="cls-4" x="2346.09" y="3811.38" width="336.58" height="133.47"/>
  <rect class="cls-4" x="2631.33" y="4066.7" width="394.84" height="156.57"/>
  <rect class="cls-4" x="3336.95" y="3733.09" width="394.84" height="156.57"/>
  <rect class="cls-4" x="3008.42" y="4345.13" width="225.04" height="89.24"/>
  <rect class="cls-4" x="3534.37" y="4016.33" width="225.04" height="89.24"/>
</svg>