<svg width="264" height="36" viewBox="0 0 264 36" fill="none" xmlns="http://www.w3.org/2000/svg">
<rect x="136" width="36" height="8" rx="2" transform="rotate(90 136 0)" fill="url(#paint0_linear_619_2627)"/>
<rect x="104" width="36" height="8" rx="2" transform="rotate(90 104 0)" fill="url(#paint1_linear_619_2627)"/>
<rect x="72" width="36" height="8" rx="2" transform="rotate(90 72 0)" fill="url(#paint2_linear_619_2627)"/>
<rect x="232" width="36" height="8" rx="2" transform="rotate(90 232 0)" fill="url(#paint3_linear_619_2627)"/>
<rect x="200" width="36" height="8" rx="2" transform="rotate(90 200 0)" fill="url(#paint4_linear_619_2627)"/>
<rect x="264" width="36" height="8" rx="2" transform="rotate(90 264 0)" fill="url(#paint5_linear_619_2627)"/>
<rect x="168" width="36" height="8" rx="2" transform="rotate(90 168 0)" fill="url(#paint6_linear_619_2627)"/>
<rect x="40" width="36" height="8" rx="2" transform="rotate(90 40 0)" fill="url(#paint7_linear_619_2627)"/>
<rect x="8" width="36" height="8" rx="2" transform="rotate(90 8 0)" fill="url(#paint8_linear_619_2627)"/>
<defs>
<linearGradient id="paint0_linear_619_2627" x1="136" y1="4" x2="172" y2="4" gradientUnits="userSpaceOnUse">
<stop stop-color="currentColor"/>
<stop offset="1" stop-color="white"/>
</linearGradient>
<linearGradient id="paint1_linear_619_2627" x1="104" y1="4" x2="140" y2="4" gradientUnits="userSpaceOnUse">
<stop stop-color="currentColor"/>
<stop offset="1" stop-color="white"/>
</linearGradient>
<linearGradient id="paint2_linear_619_2627" x1="72" y1="4" x2="108" y2="4" gradientUnits="userSpaceOnUse">
<stop stop-color="currentColor"/>
<stop offset="1" stop-color="white"/>
</linearGradient>
<linearGradient id="paint3_linear_619_2627" x1="232" y1="4" x2="268" y2="4" gradientUnits="userSpaceOnUse">
<stop stop-color="currentColor"/>
<stop offset="1" stop-color="white"/>
</linearGradient>
<linearGradient id="paint4_linear_619_2627" x1="200" y1="4" x2="236" y2="4" gradientUnits="userSpaceOnUse">
<stop stop-color="currentColor"/>
<stop offset="1" stop-color="white"/>
</linearGradient>
<linearGradient id="paint5_linear_619_2627" x1="264" y1="4" x2="300" y2="4" gradientUnits="userSpaceOnUse">
<stop stop-color="currentColor"/>
<stop offset="1" stop-color="white"/>
</linearGradient>
<linearGradient id="paint6_linear_619_2627" x1="168" y1="4" x2="204" y2="4" gradientUnits="userSpaceOnUse">
<stop stop-color="currentColor"/>
<stop offset="1" stop-color="white"/>
</linearGradient>
<linearGradient id="paint7_linear_619_2627" x1="40" y1="4" x2="76" y2="4" gradientUnits="userSpaceOnUse">
<stop stop-color="currentColor"/>
<stop offset="1" stop-color="white"/>
</linearGradient>
<linearGradient id="paint8_linear_619_2627" x1="8" y1="4" x2="44" y2="4" gradientUnits="userSpaceOnUse">
<stop stop-color="currentColor"/>
<stop offset="1" stop-color="white"/>
</linearGradient>
</defs>
</svg>
