<svg width="36" height="360" viewBox="0 0 36 360" fill="none" xmlns="http://www.w3.org/2000/svg">
<rect width="36" height="8" rx="2" fill="url(#paint0_linear_619_2651)"/>
<rect y="32" width="36" height="8" rx="2" fill="url(#paint1_linear_619_2651)"/>
<rect y="64" width="36" height="8" rx="2" fill="url(#paint2_linear_619_2651)"/>
<rect y="96" width="36" height="8" rx="2" fill="url(#paint3_linear_619_2651)"/>
<rect y="128" width="36" height="8" rx="2" fill="url(#paint4_linear_619_2651)"/>
<rect y="160" width="36" height="8" rx="2" fill="url(#paint5_linear_619_2651)"/>
<rect y="192" width="36" height="8" rx="2" fill="url(#paint6_linear_619_2651)"/>
<rect y="224" width="36" height="8" rx="2" fill="url(#paint7_linear_619_2651)"/>
<rect y="256" width="36" height="8" rx="2" fill="url(#paint8_linear_619_2651)"/>
<rect y="288" width="36" height="8" rx="2" fill="url(#paint9_linear_619_2651)"/>
<rect y="320" width="36" height="8" rx="2" fill="url(#paint10_linear_619_2651)"/>
<rect y="352" width="36" height="8" rx="2" fill="url(#paint11_linear_619_2651)"/>
<defs>
<linearGradient id="paint0_linear_619_2651" x1="0" y1="4" x2="36" y2="4" gradientUnits="userSpaceOnUse">
<stop stop-color="currentColor"/>
<stop offset="1" stop-color="white"/>
</linearGradient>
<linearGradient id="paint1_linear_619_2651" x1="0" y1="36" x2="36" y2="36" gradientUnits="userSpaceOnUse">
<stop stop-color="currentColor"/>
<stop offset="1" stop-color="white"/>
</linearGradient>
<linearGradient id="paint2_linear_619_2651" x1="0" y1="68" x2="36" y2="68" gradientUnits="userSpaceOnUse">
<stop stop-color="currentColor"/>
<stop offset="1" stop-color="white"/>
</linearGradient>
<linearGradient id="paint3_linear_619_2651" x1="0" y1="100" x2="36" y2="100" gradientUnits="userSpaceOnUse">
<stop stop-color="currentColor"/>
<stop offset="1" stop-color="white"/>
</linearGradient>
<linearGradient id="paint4_linear_619_2651" x1="0" y1="132" x2="36" y2="132" gradientUnits="userSpaceOnUse">
<stop stop-color="currentColor"/>
<stop offset="1" stop-color="white"/>
</linearGradient>
<linearGradient id="paint5_linear_619_2651" x1="0" y1="164" x2="36" y2="164" gradientUnits="userSpaceOnUse">
<stop stop-color="currentColor"/>
<stop offset="1" stop-color="white"/>
</linearGradient>
<linearGradient id="paint6_linear_619_2651" x1="0" y1="196" x2="36" y2="196" gradientUnits="userSpaceOnUse">
<stop stop-color="currentColor"/>
<stop offset="1" stop-color="white"/>
</linearGradient>
<linearGradient id="paint7_linear_619_2651" x1="0" y1="228" x2="36" y2="228" gradientUnits="userSpaceOnUse">
<stop stop-color="currentColor"/>
<stop offset="1" stop-color="white"/>
</linearGradient>
<linearGradient id="paint8_linear_619_2651" x1="0" y1="260" x2="36" y2="260" gradientUnits="userSpaceOnUse">
<stop stop-color="currentColor"/>
<stop offset="1" stop-color="white"/>
</linearGradient>
<linearGradient id="paint9_linear_619_2651" x1="0" y1="292" x2="36" y2="292" gradientUnits="userSpaceOnUse">
<stop stop-color="currentColor"/>
<stop offset="1" stop-color="white"/>
</linearGradient>
<linearGradient id="paint10_linear_619_2651" x1="0" y1="324" x2="36" y2="324" gradientUnits="userSpaceOnUse">
<stop stop-color="currentColor"/>
<stop offset="1" stop-color="white"/>
</linearGradient>
<linearGradient id="paint11_linear_619_2651" x1="0" y1="356" x2="36" y2="356" gradientUnits="userSpaceOnUse">
<stop stop-color="currentColor"/>
<stop offset="1" stop-color="white"/>
</linearGradient>
</defs>
</svg>
