<svg width="56" height="56" viewBox="0 0 56 56" fill="none" xmlns="http://www.w3.org/2000/svg">
<g id="btnIcon/03">
<rect width="56" height="56" rx="28" fill="white"/>
<g id="Bell">
<path id="Icon" d="M30.4508 40.7499C30.2018 41.1793 29.8443 41.5357 29.4142 41.7834C28.984 42.0312 28.4964 42.1616 28 42.1616C27.5036 42.1616 27.016 42.0312 26.5858 41.7834C26.1557 41.5357 25.7982 41.1793 25.5492 40.7499M36.5 22.3333C36.5 20.0789 35.6045 17.9169 34.0104 16.3228C32.4163 14.7288 30.2543 13.8333 28 13.8333C25.7457 13.8333 23.5837 14.7288 21.9896 16.3228C20.3955 17.9169 19.5 20.0789 19.5 22.3333C19.5 32.2499 15.25 35.0833 15.25 35.0833H40.75C40.75 35.0833 36.5 32.2499 36.5 22.3333Z" stroke="currentcolor" stroke-width="4" stroke-linecap="round" stroke-linejoin="round"/>
</g>
</g>
</svg>
