<svg width="56" height="56" viewBox="0 0 56 56" fill="none" xmlns="http://www.w3.org/2000/svg">
<circle cx="28" cy="28" r="28" fill="#FFF1F1"/>
<path d="M39.4932 17.4932C40.2756 18.2758 40.2757 19.5447 39.4932 20.3272L30.834 28.9865L39.1777 37.3302C39.9602 38.1128 39.9602 39.3816 39.1777 40.1642C38.3951 40.9465 37.1262 40.9466 36.3437 40.1642L28 31.8204L19.6563 40.1642C18.8738 40.9467 17.6049 40.9465 16.8223 40.1642C16.0398 39.3816 16.0398 38.1128 16.8223 37.3302L25.166 28.9865L16.5068 20.3272C15.7243 19.5447 15.7244 18.2758 16.5068 17.4932C17.2893 16.7107 18.5581 16.7107 19.3407 17.4932L28 26.1525L36.6593 17.4932C37.4419 16.7107 38.7107 16.7107 39.4932 17.4932Z" fill="#B01616"/>
</svg>
