<svg width="34" height="34" viewBox="0 0 34 34" fill="none" xmlns="http://www.w3.org/2000/svg">
<path fill-rule="evenodd" clip-rule="evenodd" d="M29.2606 29.2605C30.0027 28.5186 30.5814 27.6296 30.9599 26.6508C31.3242 25.7138 31.5733 24.6428 31.6449 23.0745C31.7166 21.5031 31.7336 21.0014 31.7336 17.0001C31.7336 12.9988 31.7166 12.4968 31.6449 10.9256C31.5733 9.35733 31.3242 8.28638 30.9599 7.34923C30.59 6.36615 30.0102 5.47558 29.2606 4.73966C28.5246 3.99003 27.6341 3.40996 26.651 3.03995C25.7137 2.67599 24.6427 2.42698 23.0744 2.35567C21.5033 2.28368 21.0015 2.26672 17.0001 2.26672C12.9988 2.26672 12.4969 2.28368 10.9256 2.3554C9.35739 2.42698 8.28643 2.67599 7.34928 3.04022C6.3662 3.41019 5.47565 3.99012 4.73971 4.73961C3.99005 5.47549 3.40997 6.36604 3.03989 7.34916C2.67593 8.28638 2.42692 9.35733 2.35561 10.9256C2.28362 12.4968 2.26666 12.9987 2.26666 17.0001C2.26666 21.0014 2.28362 21.5034 2.35561 23.0745C2.42721 24.6428 2.67623 25.7138 3.04046 26.6508C3.41042 27.6341 3.99035 28.5245 4.73985 29.2605C5.47576 30.01 6.36631 30.5899 7.34939 30.9598C8.28661 31.324 9.35757 31.5731 10.9258 31.6448C12.4972 31.7164 12.9989 31.7334 17.0003 31.7334C21.0016 31.7334 21.5035 31.7164 23.0747 31.6448C24.643 31.5731 25.714 31.324 26.651 30.9598C27.6298 30.5812 28.5187 30.0026 29.2606 29.2605ZM4.53217 15.266C4.53274 15.7426 4.53344 16.3097 4.53344 17.0001C4.53344 17.6905 4.53274 18.2576 4.53217 18.7342C4.52991 20.5949 4.52934 21.0768 4.57782 22.1352C4.63816 23.4621 4.71065 24.4372 4.93199 25.1721C5.14479 25.8786 5.38344 26.5976 6.16261 27.4655C6.94178 28.3332 7.69331 28.7262 8.65062 29.015C9.60792 29.3035 10.8111 29.3656 11.8558 29.4132C13.0409 29.4674 13.5105 29.4672 15.9962 29.4665H17.0001C17.6642 29.4665 18.2142 29.4669 18.6794 29.4676C20.5857 29.4697 21.067 29.4701 22.1357 29.4212C23.4627 29.3609 24.4378 29.2883 25.1727 29.0671C25.8792 28.8543 26.5982 28.6156 27.4659 27.8363C28.3336 27.0573 28.7266 26.3056 29.0154 25.3484C29.3041 24.391 29.3662 23.1878 29.4138 22.1432C29.4678 20.9597 29.4676 20.4913 29.4671 18.0144L29.4669 17.0009V15.997C29.4676 13.5113 29.4678 13.0417 29.4136 11.8567C29.366 10.8119 29.3039 9.60873 29.0154 8.65143C28.7266 7.69414 28.3336 6.94258 27.4659 6.16342C26.5982 5.38425 25.879 5.14559 25.1727 4.9328C24.4376 4.71146 23.4625 4.63897 22.1356 4.57863C21.0669 4.52967 20.5857 4.53019 18.6794 4.53228C18.2142 4.5328 17.6642 4.53341 17.0001 4.53341L15.996 4.53323C13.5105 4.53257 13.0408 4.53244 11.8558 4.5865C10.8111 4.63417 9.60792 4.6962 8.65062 4.98493C7.69331 5.27366 6.94178 5.6667 6.16261 6.53443C5.38344 7.40213 5.14479 8.12121 4.93199 8.82766C4.71065 9.56253 4.63816 10.5377 4.57782 11.8646C4.52934 12.923 4.52991 13.4051 4.53217 15.266ZM16.9999 11.9004C14.1835 11.9004 11.9003 14.1836 11.9003 17C11.9003 19.8165 14.1835 22.0997 16.9999 22.0997C19.8164 22.0997 22.0995 19.8165 22.0995 17C22.0995 14.1836 19.8164 11.9004 16.9999 11.9004ZM9.6336 17C9.6336 12.9317 12.9316 9.63373 16.9999 9.63373C21.0682 9.63373 24.3662 12.9317 24.3662 17C24.3662 21.0683 21.0682 24.3663 16.9999 24.3663C12.9316 24.3663 9.6336 21.0683 9.6336 17ZM24.8646 10.8354C25.8035 10.8354 26.5646 10.0743 26.5646 9.1354C26.5646 8.19653 25.8035 7.4354 24.8646 7.4354C23.9258 7.4354 23.1646 8.19653 23.1646 9.1354C23.1646 10.0743 23.9258 10.8354 24.8646 10.8354Z" fill="currentColor"/>
</svg>
