<svg width="34" height="34" viewBox="0 0 34 34" fill="none" xmlns="http://www.w3.org/2000/svg">
<path fill-rule="evenodd" clip-rule="evenodd" d="M28.3333 6.79999L5.66667 6.80004C3.78889 6.80004 2.26667 8.32229 2.26667 10.2V21.5334C2.26667 23.4113 3.78889 24.9333 5.66667 24.9333H17.0001C17.3007 24.9333 17.5889 25.0528 17.8014 25.2654L22.6667 30.1306V26.0667C22.6667 25.4408 23.1742 24.9333 23.8 24.9333H28.3333C30.211 24.9333 31.7333 23.4113 31.7333 21.5334V10.2C31.7333 8.32222 30.211 6.79999 28.3333 6.79999ZM5.66664 4.53337L28.3333 4.53333C31.4629 4.53333 34 7.07038 34 10.2V21.5334C34 24.6629 31.4629 27.2 28.3333 27.2H24.9333V32.8667C24.9333 33.325 24.6573 33.7382 24.2336 33.9136C23.8102 34.0891 23.3226 33.9921 22.9985 33.6681L16.5306 27.2H5.66667C2.53706 27.2 0 24.6629 0 21.5334V10.2C0 7.07043 2.53703 4.53339 5.66664 4.53337Z" fill="currentColor"/>
</svg>
