<svg width="58" height="75" viewBox="0 0 58 75" fill="none" xmlns="http://www.w3.org/2000/svg">
<path d="M28.7695 0.5C44.3819 0.500162 57.0381 13.1518 57.0381 28.7588C57.0381 38.0221 53.8195 43.0126 48.7383 51.2529C47.0647 53.967 42.8647 59.5417 38.7393 64.4297C36.6747 66.8758 34.618 69.1635 32.8955 70.8428C32.0355 71.6811 31.2483 72.3782 30.5781 72.8691C30.2432 73.1145 29.9262 73.3158 29.6367 73.458C29.3558 73.5959 29.0575 73.7001 28.7695 73.7002C28.4839 73.7002 28.1865 73.5989 27.9053 73.4639C27.6159 73.3249 27.2993 73.128 26.9639 72.8877C26.2925 72.4065 25.5028 71.7224 24.6396 70.8984C22.9111 69.2484 20.8444 66.9963 18.7627 64.5732C14.603 59.7315 10.3398 54.1555 8.55273 51.2529C3.48123 43.0157 0.5 38.0635 0.5 28.7588C0.500008 13.1517 13.157 0.5 28.7695 0.5Z" fill="currentColor" stroke="#555555"/>
<path fill-rule="evenodd" clip-rule="evenodd" d="M28.7692 43.5795C36.9487 43.5795 43.5795 36.9487 43.5795 28.7692C43.5795 20.5898 36.9487 13.959 28.7692 13.959C20.5898 13.959 13.959 20.5898 13.959 28.7692C13.959 36.9487 20.5898 43.5795 28.7692 43.5795Z" fill="white" stroke="#555555"/>
</svg>
