<svg width="24" height="24" viewBox="0 0 24 24" fill="none" xmlns="http://www.w3.org/2000/svg">
<path d="M19.5229 20.2058H4.72632C4.63289 20.2058 4.54328 20.1687 4.47721 20.1026C4.41114 20.0366 4.37402 19.947 4.37402 19.8535V12.1029C4.37402 12.0095 4.41114 11.9199 4.47721 11.8538C4.54328 11.7877 4.63289 11.7506 4.72632 11.7506C4.81976 11.7506 4.90937 11.7877 4.97544 11.8538C5.04151 11.9199 5.07862 12.0095 5.07862 12.1029V19.5012H19.1706V12.1029C19.1706 12.0095 19.2078 11.9199 19.2738 11.8538C19.3399 11.7877 19.4295 11.7506 19.5229 11.7506C19.6164 11.7506 19.706 11.7877 19.7721 11.8538C19.8381 11.9199 19.8752 12.0095 19.8752 12.1029V19.8535C19.8752 19.947 19.8381 20.0366 19.7721 20.1026C19.706 20.1687 19.6164 20.2058 19.5229 20.2058Z" fill="currentColor" stroke="currentColor" stroke-width="0.9"/>
<path d="M4.7678 12.3377C3.25379 12.3377 2.02197 11.1529 2.02197 9.69654C2.02197 9.6031 2.05909 9.51349 2.12516 9.44742C2.19123 9.38136 2.28084 9.34424 2.37427 9.34424C2.46771 9.34424 2.55732 9.38136 2.62339 9.44742C2.68946 9.51349 2.72657 9.6031 2.72657 9.69654C2.72657 10.7644 3.64256 11.6331 4.7678 11.6331C5.89305 11.6331 6.80921 10.7642 6.80921 9.69654C6.80921 9.6031 6.84632 9.51349 6.91239 9.44742C6.97846 9.38136 7.06807 9.34424 7.16151 9.34424C7.25494 9.34424 7.34455 9.38136 7.41062 9.44742C7.47669 9.51349 7.51381 9.6031 7.51381 9.69654C7.51381 11.1529 6.28199 12.3377 4.7678 12.3377Z" fill="currentColor" stroke="currentColor" stroke-width="0.9"/>
<path d="M9.55516 12.3377C8.04026 12.3377 6.80933 11.1529 6.80933 9.69654C6.80933 9.6031 6.84644 9.51349 6.91251 9.44742C6.97858 9.38136 7.06819 9.34424 7.16163 9.34424C7.25506 9.34424 7.34467 9.38136 7.41074 9.44742C7.47681 9.51349 7.51393 9.6031 7.51393 9.69654C7.51393 10.7644 8.42991 11.6331 9.55516 11.6331C10.6804 11.6331 11.5964 10.7642 11.5964 9.69654C11.5964 9.6031 11.6335 9.51349 11.6996 9.44742C11.7656 9.38136 11.8553 9.34424 11.9487 9.34424C12.0421 9.34424 12.1317 9.38136 12.1978 9.44742C12.2639 9.51349 12.301 9.6031 12.301 9.69654C12.301 11.1529 11.0692 12.3377 9.55516 12.3377Z" fill="currentColor" stroke="currentColor" stroke-width="0.9"/>
<path d="M14.3423 12.3377C12.8283 12.3377 11.5964 11.1529 11.5964 9.69654C11.5964 9.6031 11.6336 9.51349 11.6996 9.44742C11.7657 9.38136 11.8553 9.34424 11.9487 9.34424C12.0422 9.34424 12.1318 9.38136 12.1979 9.44742C12.2639 9.51349 12.301 9.6031 12.301 9.69654C12.301 10.7644 13.217 11.6331 14.3423 11.6331C15.4675 11.6331 16.3835 10.7642 16.3835 9.69654C16.3835 9.6031 16.4206 9.51349 16.4867 9.44742C16.5528 9.38136 16.6424 9.34424 16.7358 9.34424C16.8292 9.34424 16.9188 9.38136 16.9849 9.44742C17.051 9.51349 17.0881 9.6031 17.0881 9.69654C17.0881 11.1529 15.8565 12.3377 14.3423 12.3377Z" fill="currentColor" stroke="currentColor" stroke-width="0.9"/>
<path d="M19.1296 12.3377C17.6147 12.3377 16.3835 11.1529 16.3835 9.69654C16.3835 9.6031 16.4207 9.51349 16.4867 9.44742C16.5528 9.38136 16.6424 9.34424 16.7358 9.34424C16.8293 9.34424 16.9189 9.38136 16.985 9.44742C17.051 9.51349 17.0881 9.6031 17.0881 9.69654C17.0881 10.7644 18.0041 11.6331 19.1296 11.6331C20.255 11.6331 21.1708 10.7644 21.1708 9.69654C21.1708 9.6031 21.2079 9.51349 21.274 9.44742C21.34 9.38136 21.4296 9.34424 21.5231 9.34424C21.6165 9.34424 21.7061 9.38136 21.7722 9.44742C21.8383 9.51349 21.8754 9.6031 21.8754 9.69654C21.8754 11.1529 20.6436 12.3377 19.1296 12.3377Z" fill="currentColor" stroke="currentColor" stroke-width="0.9"/>
<path d="M21.5226 9.85454C21.4388 9.85447 21.3576 9.82446 21.2939 9.76992C21.2302 9.71538 21.188 9.63989 21.1749 9.55702C21.1739 9.54944 21.0516 8.78055 20.8492 7.85417C20.8292 7.76289 20.8463 7.6674 20.8967 7.58871C20.9471 7.51002 21.0267 7.45458 21.118 7.43458C21.2093 7.41459 21.3048 7.43168 21.3835 7.48209C21.4622 7.5325 21.5176 7.6121 21.5376 7.70339C21.7451 8.65143 21.866 9.41539 21.8711 9.44728C21.8783 9.49299 21.8764 9.53967 21.8656 9.58465C21.8547 9.62964 21.8351 9.67205 21.8079 9.70946C21.7806 9.74687 21.7463 9.77855 21.7068 9.80269C21.6673 9.82682 21.6235 9.84294 21.5778 9.85013C21.5596 9.85307 21.5411 9.85454 21.5226 9.85454Z" fill="currentColor" stroke="currentColor" stroke-width="0.9"/>
<path d="M2.35351 9.86827C2.33499 9.86828 2.31649 9.86681 2.2982 9.86387C2.20579 9.8493 2.12292 9.79866 2.06781 9.72307C2.01269 9.64748 1.98981 9.5531 2.00421 9.46066C2.01266 9.40781 2.21365 8.13953 2.54234 6.84747C3.18089 4.33821 3.72255 4 4.16768 4H19.7316C20.2585 4 20.6814 4.59891 21.1024 5.94223C21.1269 6.01398 21.1281 6.09161 21.106 6.16411C21.0839 6.2366 21.0395 6.3003 20.9791 6.34614C20.9336 6.37915 20.8809 6.40086 20.8254 6.40948C20.7699 6.41811 20.7131 6.41339 20.6598 6.39574C20.6064 6.37808 20.558 6.34799 20.5186 6.30794C20.4792 6.26789 20.4499 6.21904 20.433 6.16541C20.012 4.81769 19.7221 4.70566 19.7193 4.7046L4.16839 4.70619C3.78086 4.84041 3.08912 7.11398 2.70264 9.57005C2.68954 9.65321 2.64717 9.72896 2.58315 9.78363C2.51914 9.83831 2.4377 9.86833 2.35351 9.86827Z" fill="currentColor" stroke="currentColor" stroke-width="0.9"/>
<path d="M17.4094 20.2058H13.3579C13.2645 20.2058 13.1749 20.1687 13.1088 20.1026C13.0427 20.0366 13.0056 19.947 13.0056 19.8535V13.8644C13.0056 13.771 13.0427 13.6814 13.1088 13.6153C13.1749 13.5492 13.2645 13.5121 13.3579 13.5121H17.4094C17.5028 13.5121 17.5924 13.5492 17.6585 13.6153C17.7246 13.6814 17.7617 13.771 17.7617 13.8644V19.8535C17.7617 19.947 17.7246 20.0366 17.6585 20.1026C17.5924 20.1687 17.5028 20.2058 17.4094 20.2058ZM13.7102 19.5012H17.0571V14.2167H13.7102V19.5012Z" fill="currentColor" stroke="currentColor" stroke-width="0.9"/>
<path d="M10.5395 18.092H6.48804C6.39461 18.092 6.305 18.0549 6.23893 17.9888C6.17286 17.9228 6.13574 17.8332 6.13574 17.7397V13.8644C6.13574 13.771 6.17286 13.6814 6.23893 13.6153C6.305 13.5492 6.39461 13.5121 6.48804 13.5121H10.5395C10.6329 13.5121 10.7225 13.5492 10.7886 13.6153C10.8547 13.6814 10.8918 13.771 10.8918 13.8644V17.7397C10.8918 17.8332 10.8547 17.9228 10.7886 17.9888C10.7225 18.0549 10.6329 18.092 10.5395 18.092ZM6.84034 17.3874H10.1872V14.2167H6.84034V17.3874Z" fill="currentColor" stroke="currentColor" stroke-width="0.9"/>
<path d="M21.1086 8.57991H2.6128C2.51936 8.57991 2.42975 8.54279 2.36368 8.47672C2.29762 8.41065 2.2605 8.32104 2.2605 8.22761C2.2605 8.13417 2.29762 8.04456 2.36368 7.97849C2.42975 7.91242 2.51936 7.87531 2.6128 7.87531H21.1086C21.202 7.87531 21.2916 7.91242 21.3577 7.97849C21.4238 8.04456 21.4609 8.13417 21.4609 8.22761C21.4609 8.32104 21.4238 8.41065 21.3577 8.47672C21.2916 8.54279 21.202 8.57991 21.1086 8.57991Z" fill="currentColor" stroke="currentColor" stroke-width="0.9"/>
</svg>
