<svg width="24" height="24" viewBox="0 0 24 24" fill="none" xmlns="http://www.w3.org/2000/svg">
<g filter="url(#filter0_i_651_2646)">
<path d="M8.43714 2.98144C9.9217 0.072432 14.0783 0.0724356 15.5629 2.98144L16.1711 4.17333C16.7523 5.31221 17.843 6.10461 19.1057 6.30544L20.4272 6.51561C23.6526 7.02858 24.9371 10.9817 22.6292 13.2926L21.6836 14.2394C20.7801 15.1441 20.3635 16.4262 20.5627 17.6892L20.7712 19.011C21.28 22.237 17.9173 24.6802 15.0063 23.1994L13.8137 22.5926C12.6741 22.0129 11.3259 22.0129 10.1863 22.5926L8.99365 23.1994C6.08274 24.6802 2.71999 22.237 3.22882 19.011L3.4373 17.6892C3.63651 16.4262 3.21993 15.1441 2.31639 14.2394L1.3708 13.2926C-0.937077 10.9817 0.347386 7.02858 3.57277 6.51561L4.89429 6.30544C6.15703 6.10461 7.24767 5.31221 7.82888 4.17333L8.43714 2.98144Z" fill="currentColor"/>
</g>
<defs>
<filter id="filter0_i_651_2646" x="0.196899" y="0.799805" width="25.6062" height="23.8425" filterUnits="userSpaceOnUse" color-interpolation-filters="sRGB">
<feFlood flood-opacity="0" result="BackgroundImageFix"/>
<feBlend mode="normal" in="SourceGraphic" in2="BackgroundImageFix" result="shape"/>
<feColorMatrix in="SourceAlpha" type="matrix" values="0 0 0 0 0 0 0 0 0 0 0 0 0 0 0 0 0 0 127 0" result="hardAlpha"/>
<feOffset dx="-2" dy="-1"/>
<feGaussianBlur stdDeviation="1.15"/>
<feComposite in2="hardAlpha" operator="arithmetic" k2="-1" k3="1"/>
<feColorMatrix type="matrix" values=""/>
<feBlend mode="normal" in2="shape" result="effect1_innerShadow_656_2616"/>
<feColorMatrix in="SourceAlpha" type="matrix" values="0 0 0 0 0 0 0 0 0 0 0 0 0 0 0 0 0 0 127 0" result="hardAlpha"/>
<feOffset dx="2" dy="1"/>
<feGaussianBlur stdDeviation="1.75"/>
<feComposite in2="hardAlpha" operator="arithmetic" k2="-1" k3="1"/>
<feColorMatrix type="matrix" values="0 0 0 0 1 0 0 0 0 1 0 0 0 0 1 0 0 0 0.73 0"/>
<feBlend mode="normal" in2="effect1_innerShadow_656_2616" result="effect2_innerShadow_656_2616"/>
</filter>
</defs>
</svg>
