<svg width="21" height="20" viewBox="0 0 21 20" fill="none" xmlns="http://www.w3.org/2000/svg">
<path d="M4.19716 19.5244H2.07565C1.99511 19.5244 1.91787 19.4924 1.86092 19.4355C1.80397 19.3785 1.77197 19.3013 1.77197 19.2207V4.99243C1.77197 4.91189 1.80397 4.83465 1.86092 4.7777C1.91787 4.72075 1.99511 4.68875 2.07565 4.68875H4.19716C4.2777 4.68875 4.35494 4.72075 4.41189 4.7777C4.46884 4.83465 4.50084 4.91189 4.50084 4.99243V19.2207C4.50084 19.3013 4.46884 19.3785 4.41189 19.4355C4.35494 19.4924 4.2777 19.5244 4.19716 19.5244ZM2.37933 18.917H3.89348V5.29611H2.37933V18.917Z" fill="currentColor" stroke="currentColor" stroke-width="0.9"/>
<path d="M20.108 7.66757H13.7436C13.6631 7.66757 13.5858 7.63558 13.5289 7.57862C13.4719 7.52167 13.4399 7.44443 13.4399 7.36389C13.4399 7.28335 13.4719 7.20611 13.5289 7.14916C13.5858 7.09221 13.6631 7.06021 13.7436 7.06021H20.108C20.1885 7.06021 20.2658 7.09221 20.3227 7.14916C20.3797 7.20611 20.4117 7.28335 20.4117 7.36389C20.4117 7.44443 20.3797 7.52167 20.3227 7.57862C20.2658 7.63558 20.1885 7.66757 20.108 7.66757Z" fill="currentColor" stroke="currentColor" stroke-width="0.9"/>
<path d="M20.1081 14.5181H8.97018C8.88964 14.5181 8.8124 14.4861 8.75545 14.4292C8.6985 14.3722 8.6665 14.295 8.6665 14.2144V12.37C8.6665 12.2895 8.6985 12.2122 8.75545 12.1553C8.8124 12.0983 8.88964 12.0663 8.97018 12.0663C9.05072 12.0663 9.12797 12.0983 9.18492 12.1553C9.24187 12.2122 9.27386 12.2895 9.27386 12.37V13.9107H20.1081C20.1886 13.9107 20.2659 13.9427 20.3228 13.9997C20.3798 14.0566 20.4118 14.1339 20.4118 14.2144C20.4118 14.295 20.3798 14.3722 20.3228 14.4292C20.2659 14.4861 20.1886 14.5181 20.1081 14.5181Z" fill="currentColor" stroke="currentColor" stroke-width="0.9"/>
<path d="M20.1082 14.5181C20.0319 14.5182 19.9584 14.4895 19.9024 14.4376L16.1895 11.0123C16.1587 10.9839 16.1341 10.9494 16.1173 10.911C16.1005 10.8726 16.0918 10.8311 16.0918 10.7892C16.0918 10.7472 16.1005 10.7058 16.1173 10.6674C16.1341 10.629 16.1587 10.5945 16.1895 10.566L19.9023 7.14069C19.9314 7.11264 19.9658 7.09069 20.0035 7.07612C20.0412 7.06156 20.0815 7.05467 20.1219 7.05586C20.1623 7.05705 20.2021 7.06629 20.2388 7.08305C20.2756 7.09981 20.3087 7.12375 20.3361 7.15346C20.3635 7.18317 20.3847 7.21806 20.3985 7.25607C20.4123 7.29409 20.4183 7.33447 20.4162 7.37484C20.4142 7.41522 20.4041 7.45477 20.3865 7.4912C20.369 7.52762 20.3443 7.56017 20.3141 7.58694L16.8436 10.7892L20.3141 13.9914C20.3589 14.0328 20.3902 14.0868 20.4039 14.1464C20.4176 14.2059 20.413 14.2681 20.3908 14.325C20.3686 14.3819 20.3297 14.4307 20.2793 14.4652C20.2289 14.4996 20.1692 14.5181 20.1082 14.5181Z" fill="currentColor" stroke="currentColor" stroke-width="0.9"/>
<path d="M13.744 12.6737H4.19723C4.11669 12.6737 4.03945 12.6417 3.9825 12.5848C3.92555 12.5278 3.89355 12.4506 3.89355 12.37V4.99243C3.89355 4.91189 3.92555 4.83465 3.9825 4.7777C4.03945 4.72075 4.11669 4.68875 4.19723 4.68875H13.744C13.8245 4.68875 13.9018 4.72075 13.9587 4.7777C14.0157 4.83465 14.0477 4.91189 14.0477 4.99243V12.37C14.0477 12.4506 14.0157 12.5278 13.9587 12.5848C13.9018 12.6417 13.8245 12.6737 13.744 12.6737ZM4.50091 12.0663H13.4403V5.29611H4.50091V12.0663Z" fill="currentColor" stroke="currentColor" stroke-width="0.9"/>
<path d="M3.13623 5.29612C2.7119 5.29378 2.29776 5.16581 1.94607 4.92836C1.59438 4.69091 1.3209 4.35462 1.16013 3.96191C0.999366 3.5692 0.958513 3.13767 1.04273 2.72176C1.12695 2.30586 1.33246 1.92422 1.63334 1.62499C1.93422 1.32576 2.31699 1.12235 2.73335 1.04042C3.14971 0.958489 3.581 1.00171 3.97282 1.16464C4.36464 1.32756 4.69943 1.60289 4.93494 1.95588C5.17046 2.30887 5.29615 2.7237 5.29615 3.14805C5.29402 3.71915 5.0654 4.26608 4.66046 4.6688C4.25552 5.07152 3.70734 5.29713 3.13623 5.29612ZM3.13623 1.60733C2.83202 1.60967 2.53532 1.70201 2.28351 1.87272C2.0317 2.04343 1.83607 2.28487 1.72127 2.5666C1.60647 2.84833 1.57764 3.15773 1.63842 3.45582C1.6992 3.7539 1.84687 4.02732 2.0628 4.24162C2.27874 4.45591 2.55329 4.60147 2.85183 4.65997C3.15037 4.71846 3.45955 4.68727 3.74039 4.57031C4.02123 4.45336 4.26116 4.25589 4.42994 4.00278C4.59872 3.74967 4.68879 3.45226 4.6888 3.14805C4.68667 2.73802 4.52203 2.34558 4.23099 2.05676C3.93995 1.76794 3.54626 1.60632 3.13623 1.60733Z" fill="currentColor" stroke="currentColor" stroke-width="0.9"/>
</svg>
