<svg width="22" height="22" viewBox="0 0 22 22" fill="none" xmlns="http://www.w3.org/2000/svg">
<path d="M11 1C11.8288 1 12.6239 1.32899 13.21 1.91504C13.7031 2.40823 14.0133 3.04965 14.0996 3.73438H20.6094C20.713 3.73438 20.8125 3.77538 20.8857 3.84863C20.959 3.92189 21 4.0214 21 4.125C21 4.2286 20.959 4.32811 20.8857 4.40137C20.8125 4.47462 20.713 4.51562 20.6094 4.51562H18.2383L17.2148 18.4658C17.1619 19.1535 16.8519 19.7961 16.3467 20.2656C15.8413 20.7352 15.1772 20.9975 14.4873 21H7.5127C6.82285 20.9975 6.15864 20.7352 5.65332 20.2656C5.14816 19.7961 4.83814 19.1535 4.78516 18.4658L3.76172 4.51562H1.39062C1.28702 4.51562 1.18751 4.47462 1.11426 4.40137C1.041 4.32811 1 4.2286 1 4.125C1 4.0214 1.041 3.92189 1.11426 3.84863C1.18751 3.77538 1.28702 3.73438 1.39062 3.73438H7.90039C7.98667 3.04965 8.29685 2.40823 8.79004 1.91504C9.37609 1.32899 10.1712 1 11 1ZM5.56445 18.4082C5.60232 18.8995 5.82365 19.3589 6.18457 19.6943C6.54551 20.0298 7.01996 20.2169 7.5127 20.2188H14.4873C14.98 20.2169 15.4545 20.0298 15.8154 19.6943C16.1763 19.3589 16.3977 18.8995 16.4355 18.4082L17.4551 4.51562H4.54492L5.56445 18.4082ZM8.26562 8.07031C8.36923 8.07031 8.46874 8.11131 8.54199 8.18457C8.61525 8.25783 8.65625 8.35734 8.65625 8.46094V16.2734C8.65625 16.377 8.61525 16.4765 8.54199 16.5498C8.46874 16.6231 8.36923 16.6641 8.26562 16.6641C8.16202 16.6641 8.06251 16.6231 7.98926 16.5498C7.916 16.4765 7.875 16.377 7.875 16.2734V8.46094C7.875 8.35734 7.916 8.25783 7.98926 8.18457C8.06251 8.11131 8.16202 8.07031 8.26562 8.07031ZM11 8.07031C11.1036 8.07031 11.2031 8.11131 11.2764 8.18457C11.3496 8.25783 11.3906 8.35734 11.3906 8.46094V16.2734C11.3906 16.377 11.3496 16.4765 11.2764 16.5498C11.2031 16.6231 11.1036 16.6641 11 16.6641C10.8964 16.6641 10.7969 16.6231 10.7236 16.5498C10.6504 16.4765 10.6094 16.377 10.6094 16.2734V8.46094C10.6094 8.35734 10.6504 8.25783 10.7236 8.18457C10.7969 8.11131 10.8964 8.07031 11 8.07031ZM13.7344 8.07031C13.838 8.07031 13.9375 8.11131 14.0107 8.18457C14.084 8.25783 14.125 8.35734 14.125 8.46094V16.2734C14.125 16.377 14.084 16.4765 14.0107 16.5498C13.9375 16.6231 13.838 16.6641 13.7344 16.6641C13.6308 16.6641 13.5313 16.6231 13.458 16.5498C13.3848 16.4765 13.3438 16.377 13.3438 16.2734V8.46094C13.3438 8.35734 13.3848 8.25783 13.458 8.18457C13.5313 8.11131 13.6308 8.07031 13.7344 8.07031ZM11 1.78125C10.3784 1.78125 9.78231 2.02824 9.34277 2.46777C8.9965 2.81404 8.77204 3.25784 8.69141 3.73438H13.3086C13.228 3.25784 13.0035 2.81404 12.6572 2.46777C12.2177 2.02824 11.6216 1.78125 11 1.78125Z" fill="currentColor"/>
<path d="M11 1L11 0.5L11 0.5L11 1ZM13.21 1.91504L13.5635 1.56149L13.5635 1.56149L13.21 1.91504ZM14.0996 3.73438L13.6035 3.79688L13.6587 4.23438H14.0996V3.73438ZM20.8857 3.84863L21.2393 3.49508L21.2393 3.49508L20.8857 3.84863ZM21 4.125L21.5 4.125V4.125H21ZM20.8857 4.40137L21.2393 4.75492L21.2393 4.75492L20.8857 4.40137ZM18.2383 4.51562V4.01562H17.7736L17.7396 4.47904L18.2383 4.51562ZM17.2148 18.4658L17.7134 18.5042L17.7135 18.5024L17.2148 18.4658ZM16.3467 20.2656L16.687 20.6319L16.6871 20.6319L16.3467 20.2656ZM14.4873 21L14.4873 21.5L14.4891 21.5L14.4873 21ZM7.5127 21L7.51088 21.5H7.5127V21ZM5.65332 20.2656L5.3129 20.6318L5.31294 20.6319L5.65332 20.2656ZM4.78516 18.4658L4.28649 18.5024L4.28663 18.5042L4.78516 18.4658ZM3.76172 4.51562L4.26038 4.47904L4.22638 4.01562H3.76172V4.51562ZM1.11426 4.40137L0.760704 4.75492L0.760705 4.75492L1.11426 4.40137ZM1 4.125L0.5 4.125L0.5 4.125L1 4.125ZM1.11426 3.84863L0.760704 3.49508L0.760704 3.49508L1.11426 3.84863ZM1.39062 3.73438L1.39062 3.23438L1.39062 3.73438ZM7.90039 3.73438V4.23438H8.34134L8.39647 3.79688L7.90039 3.73438ZM8.79004 1.91504L8.43649 1.56149L8.43649 1.56149L8.79004 1.91504ZM5.56445 18.4082L5.06579 18.4448L5.06593 18.4466L5.56445 18.4082ZM6.18457 19.6943L5.84419 20.0606L5.8442 20.0606L6.18457 19.6943ZM7.5127 20.2188L7.51085 20.7188H7.5127V20.2188ZM14.4873 20.2188L14.4873 20.7188L14.4892 20.7187L14.4873 20.2188ZM15.8154 19.6943L16.1558 20.0606L16.1558 20.0606L15.8154 19.6943ZM16.4355 18.4082L16.9341 18.4466L16.9342 18.4448L16.4355 18.4082ZM17.4551 4.51562L17.9537 4.55222L17.9931 4.01562H17.4551V4.51562ZM4.54492 4.51562V4.01562H4.00688L4.04626 4.55222L4.54492 4.51562ZM8.26562 8.07031L8.26563 7.57031L8.26562 7.57031L8.26562 8.07031ZM8.54199 8.18457L8.89555 7.83102L8.89555 7.83102L8.54199 8.18457ZM8.65625 8.46094L9.15625 8.46094L9.15625 8.46094L8.65625 8.46094ZM8.54199 16.5498L8.89555 16.9034L8.89555 16.9034L8.54199 16.5498ZM8.26562 16.6641L8.26562 17.1641H8.26563L8.26562 16.6641ZM7.98926 16.5498L7.6357 16.9034L7.6357 16.9034L7.98926 16.5498ZM7.875 8.46094L7.375 8.46094V8.46094H7.875ZM11 8.07031L11 7.57031L11 7.57031L11 8.07031ZM11.2764 8.18457L11.6299 7.83102L11.6299 7.83102L11.2764 8.18457ZM11.3906 8.46094L11.8906 8.46094L11.8906 8.46094L11.3906 8.46094ZM11.2764 16.5498L11.6299 16.9034L11.6299 16.9034L11.2764 16.5498ZM11 16.6641L11 17.1641H11L11 16.6641ZM10.7236 16.5498L10.3701 16.9034L10.3701 16.9034L10.7236 16.5498ZM10.6094 8.46094L10.1094 8.46094V8.46094H10.6094ZM10.7236 8.18457L11.0772 8.53812L10.7236 8.18457ZM13.7344 8.07031L13.7344 7.57031L13.7344 7.57031L13.7344 8.07031ZM14.0107 8.18457L14.3643 7.83102L14.3643 7.83102L14.0107 8.18457ZM14.125 8.46094L14.625 8.46094L14.625 8.46094L14.125 8.46094ZM14.0107 16.5498L14.3643 16.9034L14.3643 16.9034L14.0107 16.5498ZM13.7344 16.6641L13.7344 17.1641H13.7344L13.7344 16.6641ZM13.458 16.5498L13.1045 16.9034L13.1045 16.9034L13.458 16.5498ZM13.3438 16.2734L12.8438 16.2734L13.3438 16.2734ZM13.3438 8.46094L12.8438 8.46094V8.46094H13.3438ZM13.458 8.18457L13.8116 8.53812L13.458 8.18457ZM11 1.78125L11 1.28125L11 1.28125L11 1.78125ZM9.34277 2.46777L8.98922 2.11422L8.98922 2.11422L9.34277 2.46777ZM8.69141 3.73438L8.19841 3.65096L8.0997 4.23438H8.69141V3.73438ZM13.3086 3.73438V4.23438H13.9003L13.8016 3.65096L13.3086 3.73438ZM12.6572 2.46777L13.0108 2.11422L13.0108 2.11422L12.6572 2.46777ZM11 1V1.5C11.6963 1.5 12.3642 1.77641 12.8564 2.26859L13.21 1.91504L13.5635 1.56149C12.8836 0.881563 11.9613 0.5 11 0.5V1ZM13.21 1.91504L12.8564 2.26859C13.2702 2.68243 13.531 3.22111 13.6035 3.79688L14.0996 3.73438L14.5957 3.67187C14.4957 2.87819 14.1361 2.13402 13.5635 1.56149L13.21 1.91504ZM14.0996 3.73438V4.23438H20.6094V3.73438V3.23438H14.0996V3.73438ZM20.6094 3.73438V4.23438C20.5811 4.23438 20.5532 4.2232 20.5322 4.20219L20.8857 3.84863L21.2393 3.49508C21.0718 3.32755 20.8449 3.23438 20.6094 3.23438V3.73438ZM20.8857 3.84863L20.5322 4.20219C20.5112 4.18117 20.5 4.1533 20.5 4.125H21H21.5C21.5 3.8895 21.4068 3.66261 21.2393 3.49508L20.8857 3.84863ZM21 4.125L20.5 4.125C20.5 4.09671 20.5112 4.06883 20.5322 4.04781L20.8857 4.40137L21.2393 4.75492C21.4068 4.58739 21.5 4.3605 21.5 4.125L21 4.125ZM20.8857 4.40137L20.5322 4.04781C20.5532 4.0268 20.5811 4.01562 20.6094 4.01562V4.51562V5.01562C20.8449 5.01562 21.0718 4.92245 21.2393 4.75492L20.8857 4.40137ZM20.6094 4.51562V4.01562H18.2383V4.51562V5.01562H20.6094V4.51562ZM18.2383 4.51562L17.7396 4.47904L16.7162 18.4292L17.2148 18.4658L17.7135 18.5024L18.7369 4.55221L18.2383 4.51562ZM17.2148 18.4658L16.7163 18.4274C16.673 18.9898 16.4195 19.5153 16.0063 19.8994L16.3467 20.2656L16.6871 20.6319C17.2843 20.0768 17.6507 19.3172 17.7134 18.5042L17.2148 18.4658ZM16.3467 20.2656L16.0063 19.8994C15.593 20.2834 15.0497 20.498 14.4855 20.5L14.4873 21L14.4891 21.5C15.3046 21.4971 16.0896 21.1871 16.687 20.6319L16.3467 20.2656ZM14.4873 21V20.5H7.5127V21V21.5H14.4873V21ZM7.5127 21L7.51451 20.5C6.95026 20.498 6.40693 20.2834 5.9937 19.8994L5.65332 20.2656L5.31294 20.6319C5.91035 21.1871 6.69545 21.497 7.51088 21.5L7.5127 21ZM5.65332 20.2656L5.99374 19.8994C5.58055 19.5153 5.327 18.9898 5.28368 18.4274L4.78516 18.4658L4.28663 18.5042C4.34927 19.3172 4.71577 20.0768 5.3129 20.6318L5.65332 20.2656ZM4.78516 18.4658L5.28382 18.4292L4.26038 4.47904L3.76172 4.51562L3.26306 4.55221L4.2865 18.5024L4.78516 18.4658ZM3.76172 4.51562V4.01562H1.39062V4.51562V5.01562H3.76172V4.51562ZM1.39062 4.51562V4.01562C1.41892 4.01562 1.4468 4.0268 1.46781 4.04781L1.11426 4.40137L0.760705 4.75492C0.928232 4.92245 1.15513 5.01562 1.39062 5.01562V4.51562ZM1.11426 4.40137L1.46781 4.04781C1.48883 4.06883 1.5 4.09671 1.5 4.125L1 4.125L0.5 4.125C0.5 4.3605 0.593177 4.58739 0.760704 4.75492L1.11426 4.40137ZM1 4.125H1.5C1.5 4.1533 1.48883 4.18117 1.46781 4.20219L1.11426 3.84863L0.760704 3.49508C0.593177 3.66261 0.5 3.8895 0.5 4.125H1ZM1.11426 3.84863L1.46781 4.20219C1.4468 4.2232 1.41892 4.23438 1.39063 4.23438L1.39062 3.73438L1.39062 3.23438C1.15513 3.23438 0.928232 3.32755 0.760704 3.49508L1.11426 3.84863ZM1.39062 3.73438V4.23438H7.90039V3.73438V3.23438H1.39062V3.73438ZM7.90039 3.73438L8.39647 3.79688C8.46902 3.22111 8.72975 2.68243 9.14359 2.26859L8.79004 1.91504L8.43649 1.56149C7.86395 2.13402 7.50432 2.87819 7.40431 3.67187L7.90039 3.73438ZM8.79004 1.91504L9.14359 2.26859C9.63577 1.77641 10.3037 1.5 11 1.5L11 1L11 0.5C10.0387 0.5 9.11641 0.881563 8.43649 1.56149L8.79004 1.91504ZM5.56445 18.4082L5.06593 18.4466C5.11343 19.063 5.3911 19.6395 5.84419 20.0606L6.18457 19.6943L6.52495 19.3281C6.25621 19.0783 6.0912 18.736 6.06297 18.3698L5.56445 18.4082ZM6.18457 19.6943L5.8442 20.0606C6.2973 20.4817 6.89267 20.7165 7.51085 20.7187L7.5127 20.2188L7.51454 19.7188C7.14726 19.7174 6.79371 19.5779 6.52495 19.3281L6.18457 19.6943ZM7.5127 20.2188V20.7188H14.4873V20.2188V19.7188H7.5127V20.2188ZM14.4873 20.2188L14.4892 20.7187C15.1073 20.7165 15.7027 20.4817 16.1558 20.0606L15.8154 19.6943L15.4751 19.3281C15.2063 19.5779 14.8527 19.7174 14.4855 19.7188L14.4873 20.2188ZM15.8154 19.6943L16.1558 20.0606C16.6089 19.6395 16.8866 19.063 16.9341 18.4466L16.4355 18.4082L15.937 18.3698C15.9088 18.736 15.7438 19.0783 15.475 19.3281L15.8154 19.6943ZM16.4355 18.4082L16.9342 18.4448L17.9537 4.55222L17.4551 4.51562L16.9564 4.47903L15.9369 18.3716L16.4355 18.4082ZM17.4551 4.51562V4.01562H4.54492V4.51562V5.01562H17.4551V4.51562ZM4.54492 4.51562L4.04626 4.55222L5.06579 18.4448L5.56445 18.4082L6.06311 18.3716L5.04358 4.47903L4.54492 4.51562ZM8.26562 8.07031V8.57031C8.23733 8.57031 8.20945 8.55914 8.18844 8.53812L8.54199 8.18457L8.89555 7.83102C8.72802 7.66349 8.50112 7.57031 8.26562 7.57031V8.07031ZM8.54199 8.18457L8.18844 8.53812C8.16742 8.51711 8.15625 8.48923 8.15625 8.46094L8.65625 8.46094L9.15625 8.46094C9.15625 8.22544 9.06307 7.99854 8.89555 7.83102L8.54199 8.18457ZM8.65625 8.46094H8.15625V16.2734H8.65625H9.15625V8.46094H8.65625ZM8.65625 16.2734H8.15625C8.15625 16.2451 8.16742 16.2173 8.18844 16.1963L8.54199 16.5498L8.89555 16.9034C9.06307 16.7358 9.15625 16.5089 9.15625 16.2734H8.65625ZM8.54199 16.5498L8.18844 16.1963C8.20945 16.1752 8.23733 16.1641 8.26562 16.1641L8.26562 16.6641L8.26563 17.1641C8.50112 17.1641 8.72802 17.0709 8.89555 16.9034L8.54199 16.5498ZM8.26562 16.6641L8.26563 16.1641C8.29392 16.1641 8.3218 16.1752 8.34281 16.1963L7.98926 16.5498L7.6357 16.9034C7.80323 17.0709 8.03013 17.1641 8.26562 17.1641L8.26562 16.6641ZM7.98926 16.5498L8.34281 16.1963C8.36383 16.2173 8.375 16.2451 8.375 16.2734H7.875H7.375C7.375 16.5089 7.46818 16.7358 7.6357 16.9034L7.98926 16.5498ZM7.875 16.2734H8.375V8.46094H7.875H7.375V16.2734H7.875ZM7.875 8.46094L8.375 8.46094C8.375 8.48923 8.36383 8.51711 8.34281 8.53812L7.98926 8.18457L7.6357 7.83102C7.46818 7.99854 7.375 8.22544 7.375 8.46094L7.875 8.46094ZM7.98926 8.18457L8.34281 8.53812C8.3218 8.55914 8.29392 8.57031 8.26563 8.57031L8.26562 8.07031L8.26562 7.57031C8.03013 7.57031 7.80323 7.66349 7.6357 7.83102L7.98926 8.18457ZM11 8.07031V8.57031C10.9717 8.57031 10.9438 8.55914 10.9228 8.53812L11.2764 8.18457L11.6299 7.83102C11.4624 7.66349 11.2355 7.57031 11 7.57031V8.07031ZM11.2764 8.18457L10.9228 8.53812C10.9018 8.51711 10.8906 8.48923 10.8906 8.46094L11.3906 8.46094L11.8906 8.46094C11.8906 8.22544 11.7974 7.99854 11.6299 7.83102L11.2764 8.18457ZM11.3906 8.46094H10.8906V16.2734H11.3906H11.8906V8.46094H11.3906ZM11.3906 16.2734H10.8906C10.8906 16.2451 10.9018 16.2173 10.9228 16.1963L11.2764 16.5498L11.6299 16.9034C11.7974 16.7358 11.8906 16.5089 11.8906 16.2734H11.3906ZM11.2764 16.5498L10.9228 16.1963C10.9438 16.1752 10.9717 16.1641 11 16.1641L11 16.6641L11 17.1641C11.2355 17.1641 11.4624 17.0709 11.6299 16.9034L11.2764 16.5498ZM11 16.6641L11 16.1641C11.0283 16.1641 11.0562 16.1752 11.0772 16.1963L10.7236 16.5498L10.3701 16.9034C10.5376 17.0709 10.7645 17.1641 11 17.1641L11 16.6641ZM10.7236 16.5498L11.0772 16.1963C11.0982 16.2173 11.1094 16.2451 11.1094 16.2734H10.6094H10.1094C10.1094 16.5089 10.2026 16.7358 10.3701 16.9034L10.7236 16.5498ZM10.6094 16.2734H11.1094V8.46094H10.6094H10.1094V16.2734H10.6094ZM10.6094 8.46094L11.1094 8.46094C11.1094 8.48923 11.0982 8.51711 11.0772 8.53812L10.7236 8.18457L10.3701 7.83102C10.2026 7.99854 10.1094 8.22544 10.1094 8.46094L10.6094 8.46094ZM10.7236 8.18457L11.0772 8.53812C11.0562 8.55914 11.0283 8.57031 11 8.57031L11 8.07031L11 7.57031C10.7645 7.57031 10.5376 7.66349 10.3701 7.83102L10.7236 8.18457ZM13.7344 8.07031V8.57031C13.7061 8.57031 13.6782 8.55914 13.6572 8.53812L14.0107 8.18457L14.3643 7.83102C14.1968 7.66349 13.9699 7.57031 13.7344 7.57031V8.07031ZM14.0107 8.18457L13.6572 8.53812C13.6362 8.51711 13.625 8.48923 13.625 8.46094L14.125 8.46094L14.625 8.46094C14.625 8.22544 14.5318 7.99854 14.3643 7.83102L14.0107 8.18457ZM14.125 8.46094H13.625V16.2734H14.125H14.625V8.46094H14.125ZM14.125 16.2734H13.625C13.625 16.2451 13.6362 16.2173 13.6572 16.1963L14.0107 16.5498L14.3643 16.9034C14.5318 16.7358 14.625 16.5089 14.625 16.2734H14.125ZM14.0107 16.5498L13.6572 16.1963C13.6782 16.1752 13.7061 16.1641 13.7344 16.1641L13.7344 16.6641L13.7344 17.1641C13.9699 17.1641 14.1968 17.0709 14.3643 16.9034L14.0107 16.5498ZM13.7344 16.6641L13.7344 16.1641C13.7627 16.1641 13.7905 16.1752 13.8116 16.1963L13.458 16.5498L13.1045 16.9034C13.272 17.0709 13.4989 17.1641 13.7344 17.1641L13.7344 16.6641ZM13.458 16.5498L13.8116 16.1963C13.8326 16.2173 13.8438 16.2451 13.8438 16.2734L13.3438 16.2734L12.8438 16.2734C12.8438 16.5089 12.9369 16.7358 13.1045 16.9034L13.458 16.5498ZM13.3438 16.2734H13.8438V8.46094H13.3438H12.8438V16.2734H13.3438ZM13.3438 8.46094L13.8437 8.46094C13.8437 8.48923 13.8326 8.51711 13.8116 8.53812L13.458 8.18457L13.1045 7.83102C12.9369 7.99854 12.8438 8.22544 12.8438 8.46094L13.3438 8.46094ZM13.458 8.18457L13.8116 8.53812C13.7905 8.55914 13.7627 8.57031 13.7344 8.57031L13.7344 8.07031L13.7344 7.57031C13.4989 7.57031 13.272 7.66349 13.1045 7.83102L13.458 8.18457ZM11 1.78125L11 1.28125C10.2457 1.28125 9.5225 1.58094 8.98922 2.11422L9.34277 2.46777L9.69633 2.82133C10.0421 2.47553 10.511 2.28125 11 2.28125L11 1.78125ZM9.34277 2.46777L8.98922 2.11422C8.56796 2.53548 8.29598 3.07435 8.19841 3.65096L8.69141 3.73438L9.1844 3.81779C9.2481 3.44134 9.42505 3.0926 9.69633 2.82133L9.34277 2.46777ZM8.69141 3.73438V4.23438H13.3086V3.73438V3.23438H8.69141V3.73438ZM13.3086 3.73438L13.8016 3.65096C13.704 3.07435 13.432 2.53548 13.0108 2.11422L12.6572 2.46777L12.3037 2.82133C12.5749 3.0926 12.7519 3.44134 12.8156 3.81779L13.3086 3.73438ZM12.6572 2.46777L13.0108 2.11422C12.4775 1.58094 11.7543 1.28125 11 1.28125V1.78125V2.28125C11.489 2.28125 11.9579 2.47553 12.3037 2.82133L12.6572 2.46777Z" fill="currentColor"/>
</svg>
